<svg><path d="M155.4073853780037,158.58444674483326L158.93365803294546,161.1020334892455L158.46348834562014,169.6212307742535L141.06720991457496,169.2340569935368L138.2461917906221,173.6861964844029L128.37262835678575,170.39556049580642L125.55161023283199,168.0724999687227L125.55161023283199,168.0724999687227L124.14110117085602,160.71472882103262L119.67448914126271,161.1020334892455L118.02889523562408,152.57995547691098L124.14110117085602,151.41763059382356L119.90957398492628,145.60520174233534L114.50262258068233,145.21765880326348L117.08855586097252,139.98524553454263L126.49194960748355,136.30252531440055L140.59704022724964,138.24086623132462L144.82856741317937,134.36403522019828L144.82856741317937,134.36403522019828L144.82856741317937,134.36403522019828L144.82856741317937,134.36403522019828L144.82856741317937,134.36403522019828L146.94433100614424,137.07787958078188L150.470603661086,156.26029726618435Z" data-year="2012" style="fill: rgb(244, 82, 40);"></path><path d="M155.4073853780037,158.58444674483326L163.63535490620052,155.48553313680168L166.69145787381694,157.42239879924819L166.69145787381694,157.42239879924819L173.9790880273631,161.48933220552863L174.91942740201375,166.33006406281856L174.91942740201375,166.33006406281856L174.6843425583511,168.45969159100787L174.44925771468843,168.45969159100787L174.6843425583511,168.45969159100787L174.44925771468843,168.45969159100787L172.80366380904889,173.29908513234477L180.09129396259505,180.26618019499801L170.45281537242136,175.8152026739226L170.45281537242136,175.8152026739226L166.69145787381694,174.4604013560529L162.69501553154987,178.911618042006L155.64247022166637,175.4281240122L157.28806412730592,180.26618019499801L151.17585819207397,181.04018303916018L139.65670085259808,181.81416212434124L139.65670085259808,181.81416212434124L138.2461917906221,173.6861964844029L141.06720991457496,169.2340569935368L158.46348834562014,169.6212307742535L158.93365803294546,161.1020334892455Z" data-year="2012" style="fill: rgb(249, 116, 52);"></path><path d="M135.89534335399367,126.60858247683063L135.89534335399367,126.60858247683063L130.25330710608796,121.56625709717991L138.71636147794743,115.94093342922861L140.1268705399234,108.17980319608978L137.0707675723079,101.38685069445637L137.0707675723079,101.19273939502091L145.06365225684203,94.00956856116682L146.47416131881891,88.57229215923144L157.05297928364234,95.1745463734951L162.93010037521253,87.40700861580626L169.5124759977698,88.18387030813392L174.6843425583511,84.49356360661477L166.2212881864907,79.63707201086436L176.32993646399063,72.83640817261039L179.6211242752688,75.16827149121673L178.68078490061816,81.77404382198074L188.08417864712828,89.54332055321356L191.37536645840737,89.93172141795003L189.9648573964305,98.86328701484308L185.4982453668381,100.80451230464678L182.67722724288524,111.4785759192855L185.26316052317543,117.68685803964036L176.5650213076533,125.25113265957043L176.32993646399063,131.45602030658847L181.97197271189634,141.5357035123161L171.86332443439733,145.60520174233534L172.80366380904889,153.35480894630018L168.3370517794565,157.03503757603175L173.9790880273631,161.48933220552863L166.69145787381694,157.42239879924819L166.69145787381694,157.42239879924819L163.63535490620052,155.48553313680168L155.4073853780037,158.58444674483326L150.470603661086,156.26029726618435L146.94433100614424,137.07787958078188L144.82856741317937,134.36403522019828L144.82856741317937,134.36403522019828L144.82856741317937,134.36403522019828L144.82856741317937,134.36403522019828L144.82856741317937,134.36403522019828Z" data-year="2012" style="fill: rgb(254, 188, 84);"></path><path d="M125.55161023283199,168.0724999687227L125.55161023283199,168.0724999687227L128.37262835678575,170.39556049580642L126.49194960748355,177.7505068432729L126.49194960748355,177.7505068432729L126.49194960748355,185.87716260095112L120.84991335957693,186.26408088644166L120.61482851591427,192.0671429142094L117.55872554829875,192.0671429142094L117.55872554829875,192.0671429142094L110.03601055108902,189.93950854624927L98.98702289893936,192.45396624311616L89.8187139960919,189.93950854624927L79.23989603126756,191.10005863449987L74.77328400167426,189.16577881621197L75.24345368899958,174.4604013560529L84.17667774818528,167.68530239879328L84.17667774818528,167.68530239879328L85.58718681016126,161.87662497014753L85.58718681016126,161.87662497014753L86.52752618481281,158.19710338341247L104.62905914684598,156.64767039842627L104.62905914684598,156.64767039842627L104.39397430318331,151.03017705076127L104.15888945952065,151.03017705076127L104.39397430318331,151.03017705076127L104.15888945952065,151.03017705076127L103.45363492853267,144.83010990258117L114.50262258068233,145.21765880326348L119.90957398492628,145.60520174233534L124.14110117085602,151.41763059382356L118.02889523562408,152.57995547691098L119.67448914126271,161.1020334892455L124.14110117085602,160.71472882103262Z" data-year="2012" style="fill: rgb(243, 80, 39);"></path><path d="M84.88193227917327,122.92390556917599L88.64328977777768,136.69020543101215L98.7519380552767,144.83010990258117L103.45363492853267,144.83010990258117L104.15888945952065,151.03017705076127L104.39397430318331,151.03017705076127L104.15888945952065,151.03017705076127L104.39397430318331,151.03017705076127L104.62905914684598,156.64767039842627L104.62905914684598,156.64767039842627L86.52752618481281,158.19710338341247L85.58718681016126,161.87662497014753L85.58718681016126,161.87662497014753L84.17667774818528,167.68530239879328L84.17667774818528,167.68530239879328L75.24345368899958,174.4604013560529L74.77328400167426,189.16577881621197L70.77684165940718,198.44896933202835L60.66819338190817,205.79573961294955L51.970054166386035,207.7287446677401L47.033272449467404,201.3492658364994L47.7385269804563,192.84078363923982L67.95582353545433,167.68530239879328L59.022599476269534,161.87662497014753L49.85429057342117,163.23210278023544L54.55598744667623,141.1480979642838L59.96293885092018,142.89227596634737L62.54887213121037,132.6192665643357L61.13836306923349,125.25113265957043L55.26124197766512,127.38423523436722L54.0858177593509,122.92390556917599L66.31022962981478,116.32892713949332L75.47853853266315,121.17834408791168Z" data-year="2012" style="fill: rgb(251, 129, 56);"></path><path d="M129.07788288777374,223.57380293252209L118.02889523562408,230.9132629348569L112.62194383138012,221.25563525873076L103.68871977219533,228.01636260271334L96.1660047749865,227.63008410484326L94.75549571300962,218.35762620057722L87.70295040312703,218.35762620057722L78.06447181295334,221.64201132446397L64.66463572417524,228.98203298656517L64.66463572417524,233.80983086361448L55.496326821327784,230.9132629348569L52.91039354103759,232.45814052299102L39.980727139584815,219.13046115560428L48.443781511444286,213.91336584276723L51.970054166386035,207.7287446677401L60.66819338190817,205.79573961294955L70.77684165940718,198.44896933202835L74.77328400167426,189.16577881621197L79.23989603126756,191.10005863449987L89.8187139960919,189.93950854624927L98.98702289893936,192.45396624311616L110.03601055108902,189.93950854624927L117.55872554829875,192.0671429142094L117.55872554829875,192.0671429142094L120.61482851591427,192.0671429142094L126.25686476382089,191.8737290249046L133.54449491736614,199.22241433934687L138.71636147794743,213.91336584276723Z" data-year="2012" style="fill: rgb(251, 128, 55);"></path><path d="M120.61482851591427,192.0671429142094L120.84991335957693,186.26408088644166L126.49194960748355,185.87716260095112L126.49194960748355,177.7505068432729L126.49194960748355,177.7505068432729L128.37262835678575,170.39556049580642L138.2461917906221,173.6861964844029L139.65670085259808,181.81416212434124L139.65670085259808,181.81416212434124L151.17585819207397,181.04018303916018L156.1126399089917,192.84078363923982L149.53026428643443,223.18745643954753L155.4073853780037,224.73280692925982L158.46348834562014,238.63670567258305L155.87755506532994,244.2347246351419L144.82856741317937,243.07661563649526L144.35839772585405,236.89913704998253L128.84279804411108,226.0849109972005L129.07788288777374,223.57380293252209L138.71636147794743,213.91336584276723L133.54449491736614,199.22241433934687L126.25686476382089,191.8737290249046Z" data-year="2012" style="fill: rgb(245, 93, 44);"></path><path d="M151.17585819207397,181.04018303916018L157.28806412730592,180.26618019499801L155.64247022166637,175.4281240122L162.69501553154987,178.911618042006L169.04230631044447,181.4271755515074L175.8597667766644,192.84078363923982L174.91942740201375,196.90200816593642L168.8072214667818,196.51525304980532L168.8072214667818,196.51525304980532L170.68790021608402,201.73594684362251L186.43858474148874,214.29985433857655L190.67011192741938,215.07281357198372L191.8455361457327,222.41474571111758L189.2596028654425,229.3682907964212L176.32993646399063,232.84434514829627L170.92298505974668,218.35762620057722L155.4073853780037,224.73280692925982L149.53026428643443,223.18745643954753L156.1126399089917,192.84078363923982Z" data-year="2012" style="fill: rgb(249, 117, 52);"></path><path d="M189.2596028654425,229.3682907964212L191.8455361457327,222.41474571111758L190.67011192741938,215.07281357198372L186.43858474148874,214.29985433857655L170.68790021608402,201.73594684362251L168.8072214667818,196.51525304980532L168.8072214667818,196.51525304980532L174.91942740201375,196.90200816593642L175.8597667766644,192.84078363923982L169.04230631044447,181.4271755515074L162.69501553154987,178.911618042006L166.69145787381694,174.4604013560529L170.45281537242136,175.8152026739226L170.45281537242136,175.8152026739226L180.09129396259505,180.26618019499801L186.20349989782608,187.42480012453962L194.19638458236113,191.48689679639574L201.71909957956905,188.39202534705328L211.12249332607917,183.9424821168941L218.41012347962624,187.81169466521897L218.41012347962624,187.81169466521897L222.4065658218933,189.93950854624927L233.69063831770563,185.1033082193535L241.91860784590244,188.0051397096977L255.08335909101697,196.12849200339042L253.20268034171568,191.48689679639574L259.5499711206103,195.16156344066985L263.54641346287735,201.3492658364994L272.2445526783995,203.28261160317197L264.0165831502027,221.64201132446397L266.83760127415553,226.47121314202013L259.3148862769476,230.5270287649182L249.9114925304366,239.02281579446208L253.672850029041,243.84869420388713L250.85183190508815,248.6736504966757L243.32911690787932,249.63853114145968L236.27657159799583,265.26446444904286L231.10470503741453,261.7928700768898L231.80995956840343,253.11179626546436L235.1011473796816,249.2525833072723L233.45555347404297,243.46265787107768L228.51877175712525,240.95327784149413L220.5258870725902,245.58578467326515L215.82419019933513,233.80983086361448L206.18571160916144,237.09220613562866L195.84197848799977,236.89913704998253L196.54723301898775,230.14078868534853Z" data-year="2012" style="fill: rgb(253, 168, 74);"></path><path d="M206.65588129648677,131.06825961421418L206.65588129648677,131.06825961421418L207.1260509838121,130.2927203183135L212.76808723171962,133.7824590979435L213.94351145003293,144.44255504002285L230.16436566276388,148.51158378225227L227.34334753881103,155.8729181790477L238.3923351909607,155.8729181790477L239.0975897219496,158.19710338341247L230.16436566276388,166.33006406281856L222.4065658218933,189.93950854624927L218.41012347962624,187.81169466521897L218.41012347962624,187.81169466521897L211.12249332607917,183.9424821168941L201.71909957956905,188.39202534705328L201.01384504858106,181.81416212434124L195.84197848799977,170.39556049580642L196.54723301898775,166.33006406281856L190.19994224009315,165.16837320375635L189.72977255276783,152.57995547691098L194.4314694260238,151.03017705076127L192.31570583305802,141.1480979642838L197.95774208096555,135.1394491610481Z" data-year="2012" style="fill: rgb(253, 148, 64);"></path><path d="M180.09129396259505,180.26618019499801L172.80366380904889,173.29908513234477L174.44925771468843,168.45969159100787L174.6843425583511,168.45969159100787L174.44925771468843,168.45969159100787L174.6843425583511,168.45969159100787L174.91942740201375,166.33006406281856L174.91942740201375,166.33006406281856L173.9790880273631,161.48933220552863L168.3370517794565,157.03503757603175L172.80366380904889,153.35480894630018L171.86332443439733,145.60520174233534L181.97197271189634,141.5357035123161L176.32993646399063,131.45602030658847L176.5650213076533,125.25113265957043L185.26316052317543,117.68685803964036L200.0735056739295,122.53601347529911L207.1260509838121,130.2927203183135L206.65588129648677,131.06825961421418L206.65588129648677,131.06825961421418L197.95774208096555,135.1394491610481L192.31570583305802,141.1480979642838L194.4314694260238,151.03017705076127L189.72977255276783,152.57995547691098L190.19994224009315,165.16837320375635L196.54723301898775,166.33006406281856L195.84197848799977,170.39556049580642L201.01384504858106,181.81416212434124L201.71909957956905,188.39202534705328L194.19638458236113,191.48689679639574L186.20349989782608,187.42480012453962Z" data-year="2012" style="fill: rgb(253, 142, 60);"></path><path d="M135.89534335399367,126.60858247683063L135.89534335399367,126.60858247683063L144.82856741317937,134.36403522019828L140.59704022724964,138.24086623132462L126.49194960748355,136.30252531440055L117.08855586097252,139.98524553454263L114.50262258068233,145.21765880326348L103.45363492853267,144.83010990258117L98.7519380552767,144.83010990258117L88.64328977777768,136.69020543101215L84.88193227917327,122.92390556917599L79.71006571859289,113.41882854975847L85.82227165382392,99.63979509928686L101.10278649190423,100.41627922539556L100.39753196091624,92.26200070787672L108.15533180178772,92.26200070787672L107.92024695812506,80.99698416753745L116.14821648632096,81.38551699516393L114.032452893357,85.07627960031823L116.85347101730986,90.7085051609647L117.55872554829875,99.63979509928686L126.49194960748355,102.5514870523948L137.0707675723079,101.38685069445637L137.0707675723079,101.19273939502091L137.0707675723079,101.38685069445637L140.1268705399234,108.17980319608978L138.71636147794743,115.94093342922861L130.25330710608796,121.56625709717991Z" data-year="2012" style="fill: rgb(252, 135, 58);"></path></svg>