<?xml version="1.0" encoding="UTF-8" standalone="no"?>
<svg
   xmlns:svg="http://www.w3.org/2000/svg"
   xmlns="http://www.w3.org/2000/svg"
   version="1.1"
   width="561.61108"
   height="272.81516"
   id="svg17106">
  <defs
     id="defs17108" />
  <g
     transform="translate(-69.19453,-395.95434)"
     id="layer1">
    <path
       d="m 209.69275,577.54002 6.46955,0 0,86.22949 -15.0925,0 0,-86.22949 8.62295,0 z"
       id="path12374"
       style="fill:#ffcc00;fill-opacity:1;fill-rule:nonzero;stroke:none" />
    <path
       d="m 209.69275,490.87891 6.46955,0 0,86.65924 -15.0925,0 0,-86.65924 8.62295,0 z"
       id="path12378"
       style="fill:#ff0000;fill-opacity:1;fill-rule:nonzero;stroke:none" />
    <path
       d="m 625.80563,521.70901 -0.82679,-0.0983 c -1.85449,0 -3.24178,0.56988 -4.16667,1.70497 -0.92493,1.13976 -1.38737,2.64854 -1.38737,4.53102 l 0,15.19993 -3.90038,0 0,-20.07195 c 0,-1.65358 -0.0467,-3.14835 -0.14499,-4.47963 l 3.80236,0 0,3.21375 c 1.33124,-2.46637 3.40994,-3.70422 6.23595,-3.70422 0.25672,0 0.3877,1.23785 0.3877,3.70422 m -17.29541,21.33921 -3.84899,0 -0.0467,-3.11566 c -1.49477,2.33558 -3.55942,3.50337 -6.18928,3.50337 -4.38621,0 -6.57699,-2.51308 -6.57699,-7.54859 l 0,-17.39537 3.84907,0 0,15.6904 c 0,2.01327 0.16368,3.44264 0.48576,4.28812 0.5512,1.39668 1.69096,2.09268 3.40995,2.09268 3.21846,0 4.8253,-2.38696 4.8253,-7.16088 l 0,-14.91032 3.89574,0 0,19.14706 c 0,1.91984 0.0654,3.71824 0.19619,5.40919 m -21.48544,0 c -1.20045,0.1308 -2.14406,0.19619 -2.82605,0.19619 -2.20941,0 -3.71823,-0.47179 -4.53102,-1.41536 -0.68198,-0.84548 -1.02298,-2.38696 -1.02298,-4.62911 l 0,-15.88192 -3.65284,0 0,-2.82605 3.65284,0 0,-4.53102 3.84903,-1.70497 0,6.23599 4.38622,0 0,2.82605 -4.38622,0 0,15.4475 c 0,1.36398 0.19619,2.27952 0.5839,2.75131 0.39237,0.47179 1.12107,0.70535 2.19544,0.70535 0.1917,0 0.77541,-0.0654 1.75168,-0.19619 l 0,3.02223 z m -13.59305,0 -4.53102,0 -8.08573,-13.73786 7.35706,-10.81839 4.4796,0 -7.64668,10.7203 8.42677,13.83595 z m -12.76627,0 -3.84903,0 0,-35.22516 3.84903,0 0,35.22516 z m -10.91133,0 -3.84899,0 -0.0467,-3.11566 c -1.49477,2.33558 -3.55942,3.50337 -6.18928,3.50337 -4.38621,0 -6.57698,-2.51308 -6.57698,-7.54859 l 0,-17.39537 3.84903,0 0,15.6904 c 0,2.01327 0.16368,3.44264 0.4858,4.28812 0.55119,1.39668 1.69096,2.09268 3.40994,2.09268 3.21843,0 4.8253,-2.38696 4.8253,-7.16088 l 0,-14.91032 3.89574,0 0,19.14706 c 0,1.91984 0.0654,3.71824 0.19619,5.40919 m -21.29044,-21.33921 -0.8268,-0.0983 c -1.85444,0 -3.24178,0.56988 -4.16666,1.70497 -0.92489,1.13976 -1.38734,2.64855 -1.38734,4.53102 l 0,15.19993 -3.90045,0 0,-20.07194 c 0,-1.65359 -0.0467,-3.14836 -0.14499,-4.47964 l 3.80228,0 0,3.21376 c 1.33132,-2.46637 3.40998,-3.70423 6.23603,-3.70423 0.2571,0 0.3877,1.23786 0.3877,3.70423 m -15.05419,21.33921 c -1.20049,0.13079 -2.14406,0.19618 -2.82605,0.19618 -2.20945,0 -3.71823,-0.47178 -4.53102,-1.41535 -0.68198,-0.84548 -1.02298,-2.38696 -1.02298,-4.62912 l 0,-15.88192 -3.65284,0 0,-2.82605 3.65284,0 0,-4.53102 3.84903,-1.70497 0,6.23599 4.38622,0 0,2.82605 -4.38622,0 0,15.4475 c 0,1.36398 0.19619,2.27953 0.5839,2.75131 0.39237,0.47179 1.12107,0.70535 2.19544,0.70535 0.19133,0 0.77541,-0.0654 1.75168,-0.19619 l 0,3.02224 z m -15.29803,-6.72318 c 0,4.77392 -2.56446,7.16088 -7.69806,7.16088 -5.0355,0 -7.50187,-2.64854 -7.40377,-7.94096 l 3.84903,0 c 0,0.4858 0.0149,0.94357 0.0467,1.36398 0.22907,2.56446 1.42933,3.84903 3.60613,3.84903 2.46637,0 3.70422,-1.26588 3.70422,-3.79765 0,-1.36398 -0.39241,-2.43834 -1.17246,-3.21842 -0.4858,-0.5185 -1.57421,-1.23319 -3.26513,-2.14406 -2.30288,-1.23319 -3.76495,-2.14406 -4.38158,-2.72796 -1.23315,-1.13509 -1.85441,-2.64854 -1.85441,-4.53102 0,-2.11136 0.70067,-3.71823 2.09734,-4.82063 1.29858,-1.04166 3.03625,-1.56016 5.21301,-1.56016 2.53177,0 4.33483,0.59324 5.4092,1.77971 1.06969,1.1818 1.63957,3.01289 1.70497,5.47926 l -3.84903,0 c 0,-3.05493 -1.15378,-4.57773 -3.46133,-4.57773 -1.00429,0 -1.80306,0.3083 -2.38696,0.92489 -0.58389,0.61659 -0.87817,1.42937 -0.87817,2.43367 0,1.10706 0.47178,2.04597 1.41536,2.82605 0.4858,0.45777 1.63957,1.16779 3.45665,2.14406 1.98524,1.07436 3.34918,1.98057 4.0966,2.72795 1.16779,1.23319 1.75168,2.77934 1.75168,4.62911 m -20.51103,6.72318 -3.75094,0 -0.0516,-3.21376 c -1.65358,2.40098 -3.84436,3.60146 -6.57698,3.60146 -2.0787,0 -3.68558,-0.68199 -4.82063,-2.04596 -1.00897,-1.29858 -1.50878,-3.01757 -1.50878,-5.16163 0,-3.47534 1.33124,-5.81558 3.99383,-7.01607 1.75169,-0.81278 4.64309,-1.23318 8.66963,-1.26588 l 0,-1.07437 c 0,-2.01326 -0.15882,-3.40994 -0.4858,-4.19002 -0.51846,-1.29858 -1.62553,-1.94787 -3.31181,-1.94787 -1.1725,0 -2.1441,0.32698 -2.92418,0.97627 -0.78005,0.64929 -1.16779,1.55549 -1.16779,2.72795 l 0,0.2429 -3.84899,0 0,-0.2429 c 0,-2.24215 0.81274,-3.91443 2.43367,-5.02149 1.39663,-0.9716 3.28378,-1.4574 5.65205,-1.4574 2.82609,0 4.79265,0.68199 5.895,2.04597 1.04167,1.23318 1.5602,3.27915 1.5602,6.13789 l 0,9.06204 c 0,2.95684 0.0792,5.56801 0.2429,7.84287 m -4.04522,-9.50113 0,-2.92414 -0.97163,0 c -5.1336,0 -7.69803,1.75635 -7.69803,5.26439 0,3.14836 1.20045,4.72721 3.60613,4.72721 1.81704,0 3.16705,-0.78009 4.04055,-2.34025 0.68199,-1.23319 1.02298,-2.81204 1.02298,-4.72721 m -15.19866,-11.83808 -0.82676,-0.0983 c -1.85444,0 -3.24181,0.56988 -4.16666,1.70497 -0.92489,1.13977 -1.38734,2.64855 -1.38734,4.53102 l 0,15.19994 -3.90041,0 0,-20.07195 c 0,-1.65359 -0.0467,-3.14836 -0.14462,-4.47964 l 3.80232,0 0,3.21376 c 1.33124,-2.46637 3.40994,-3.70423 6.23595,-3.70423 0.2571,0 0.38775,1.23786 0.38775,3.70423 m -15.0542,-11.0104 c -0.29409,-0.0336 -0.79413,-0.0467 -1.50878,-0.0467 -1.20516,0 -2.01327,0.43442 -2.43838,1.3126 -0.25673,0.61659 -0.38767,1.60687 -0.38767,2.97085 l 0,3.55942 4.19003,0 0,2.82605 -4.19003,0 0,21.72553 -3.84903,0 0,-21.72553 -3.60613,0 0,-2.82605 3.60613,0 0,-2.68124 c 0,-2.66256 0.3225,-4.56372 0.9716,-5.69881 0.91088,-1.69096 2.66723,-2.53644 5.26439,-2.53644 0.68199,0 1.33128,0.0336 1.94787,0.0983 l 0,3.02224 z m -16.71107,32.34961 -3.84903,0 0,-15.68573 c 0,-2.11136 -0.14462,-3.55942 -0.43909,-4.33951 -0.55119,-1.42937 -1.67227,-2.14405 -3.35855,-2.14405 -1.65826,0 -2.94283,0.81278 -3.84904,2.43834 -0.74738,1.39667 -1.12107,3.05026 -1.12107,4.9701 l 0,14.76085 -3.84903,0 0,-19.19377 c 0,-2.17676 -0.0654,-3.96581 -0.19619,-5.36248 l 3.80232,0 0,3.36323 c 1.36397,-2.59716 3.48935,-3.89575 6.38079,-3.89575 4.32082,0 6.47889,2.54578 6.47889,7.64668 l 0,17.44209 z m -24.35958,0 -4.14331,0 0,-35.22517 2.07399,0 2.06932,0 0,35.22517 z m -22.65464,-11.74141 -12.85969,0 0,1.65826 c 0,2.49906 0.22422,4.30213 0.68199,5.40452 0.64929,1.59287 1.91518,2.38696 3.79765,2.38696 2.82605,0 4.30213,-1.80306 4.43292,-5.40452 l 3.80232,0 c -0.22907,5.4559 -2.97552,8.18386 -8.23524,8.18386 -3.40994,0 -5.75019,-1.15378 -7.01607,-3.46133 -0.94358,-1.71898 -1.41069,-4.49832 -1.41069,-8.32866 0,-4.35352 0.40639,-7.46918 1.2145,-9.35632 1.27055,-2.95217 3.76962,-4.43293 7.50654,-4.43293 3.50804,0 5.84362,1.29858 7.01608,3.90042 0.71001,1.62089 1.06969,4.40022 1.06969,8.32866 l 0,1.12108 z m -3.89574,-2.62986 c 0,-2.37295 -0.16331,-4.04522 -0.49047,-5.01682 -0.5839,-1.95254 -1.83577,-2.92414 -3.75094,-2.92414 -2.66256,0 -4.17134,1.58819 -4.53102,4.77392 -0.13079,1.10239 -0.1917,2.15807 -0.1917,3.16704 l 8.96394,0 z m -19.19751,14.37127 -3.84903,0 0,-35.22517 1.92452,0 1.92451,0 0,35.22517 z m -10.76701,0 -3.75093,0 -0.0516,-3.21375 c -1.65359,2.40097 -3.84436,3.60146 -6.57699,3.60146 -2.07866,0 -3.68554,-0.68199 -4.82063,-2.04597 -1.00897,-1.29858 -1.50878,-3.01757 -1.50878,-5.16162 0,-3.47534 1.33128,-5.81559 3.99384,-7.01608 1.75168,-0.81278 4.64312,-1.23318 8.66966,-1.26588 l 0,-1.07436 c 0,-2.01327 -0.15882,-3.40995 -0.4858,-4.19003 -0.5185,-1.29858 -1.62556,-1.94787 -3.31185,-1.94787 -1.17246,0 -2.14406,0.32698 -2.92414,0.97627 -0.78008,0.64929 -1.16779,1.55549 -1.16779,2.72795 l 0,0.2429 -3.84903,0 0,-0.2429 c 0,-2.24215 0.81278,-3.91442 2.43367,-5.02149 1.39667,-0.9716 3.28382,-1.4574 5.6521,-1.4574 2.82604,0 4.7926,0.68199 5.89499,2.04597 1.04167,1.23318 1.56017,3.27915 1.56017,6.1379 l 0,9.06203 c 0,2.95684 0.0796,5.56802 0.2429,7.84287 m -4.04522,-9.50113 0,-2.92414 -0.9716,0 c -5.1336,0 -7.69806,1.75636 -7.69806,5.26439 0,3.14836 1.20048,4.72721 3.60613,4.72721 1.81708,0 3.16704,-0.78008 4.04054,-2.34025 0.68199,-1.23318 1.02299,-2.81203 1.02299,-4.72721 m -15.9786,9.50113 c -1.20048,0.13079 -2.14406,0.19619 -2.82605,0.19619 -2.20945,0 -3.71823,-0.47179 -4.53101,-1.41536 -0.68199,-0.84548 -1.02302,-2.38696 -1.02302,-4.62911 l 0,-15.88193 -3.65281,0 0,-2.82604 3.65281,0 0,-4.53102 3.84906,-1.70497 0,6.23599 4.38622,0 0,2.82604 -4.38622,0 0,15.44751 c 0,1.36397 0.19619,2.27952 0.5839,2.75131 0.39237,0.47178 1.12107,0.70534 2.19544,0.70534 0.19133,0 0.77541,-0.0654 1.75168,-0.19619 l 0,3.02224 z M 309.129,512.4992 l -4.23674,0 0,-4.19002 4.23674,0 0,4.19002 z m -0.19619,30.54934 -3.84903,0 0,-24.55625 3.84903,0 0,24.55625 z m -10.91338,-24.55576 c 0,0.35949 -0.0224,0.99962 -0.0747,1.92451 -0.0467,0.92489 -0.0703,1.64892 -0.0703,2.16742 l 0,21.4873 c 0,2.98487 -0.70068,5.16163 -2.09731,6.5256 -1.39668,1.36398 -3.62015,2.04597 -6.67508,2.04597 -5.06353,0 -7.63267,-2.36828 -7.69806,-7.1095 l 4.0966,0 c 0,2.98487 1.26588,4.47964 3.79765,4.47964 1.98056,0 3.29783,-0.71469 3.94712,-2.14406 0.4531,-0.9389 0.68199,-2.49907 0.68199,-4.67582 l 0,-3.31185 c -1.36398,1.91517 -3.26517,2.87276 -5.69881,2.87276 -3.05497,0 -5.15228,-1.28457 -6.28737,-3.84903 -0.74742,-1.68629 -1.12108,-4.32082 -1.12108,-7.89425 0,-3.96114 0.40639,-6.91798 1.21917,-8.86585 1.16779,-2.79335 3.24646,-4.19003 6.23599,-4.19003 2.72792,0 4.69447,1.13977 5.895,3.40995 l 0,-2.87276 3.84903,0 z m -3.99384,11.4957 c 0,-2.76065 -0.22907,-4.80661 -0.68199,-6.13789 -0.71468,-2.01327 -2.04596,-3.01757 -3.9985,-3.01757 -2.01327,0 -3.34455,1.13509 -3.99384,3.40995 -0.38771,1.36397 -0.58389,3.62014 -0.58389,6.7685 0,2.82604 0.19618,4.84398 0.58389,6.04447 0.61659,2.01327 1.86846,3.01756 3.75094,3.01756 2.20945,0 3.67152,-1.2145 4.38621,-3.65284 0.35949,-1.26588 0.53718,-3.40994 0.53718,-6.43218 m -19.29515,-17.48928 -4.23674,0 0,-4.19002 4.23674,0 0,4.19002 z m -0.19133,30.54934 -3.84903,0 0,-24.55625 3.84903,0 0,24.55625 z m -10.91555,-9.3e-4 -3.75094,0 -0.0516,-2.82605 c -1.392,2.14406 -3.31184,3.21376 -5.74552,3.21376 -3.15302,0 -5.3111,-1.41069 -6.47888,-4.23674 -0.74739,-1.88248 -1.12108,-4.80662 -1.12108,-8.76776 0,-3.73692 0.43909,-6.56297 1.31259,-8.47814 1.17246,-2.66256 3.23244,-3.99384 6.18928,-3.99384 2.46637,0 4.32082,0.95759 5.554,2.87276 l 0,-13.00916 3.89574,0 0,30.59606 c 0,0.87817 0.0654,2.41965 0.19619,4.62911 m -3.94712,-12.03289 c 0,-3.34455 -0.2429,-5.73151 -0.7287,-7.16088 -0.68199,-2.04596 -1.99926,-3.06895 -3.94713,-3.06895 -1.91517,0 -3.21375,1.0697 -3.89574,3.21376 -0.45777,1.39667 -0.68666,3.57343 -0.68666,6.53027 0,3.21375 0.26159,5.56801 0.78008,7.06278 0.68199,2.01327 1.90116,3.02224 3.65752,3.02224 2.07866,0 3.45665,-1.02766 4.13864,-3.07362 0.45777,-1.33128 0.68199,-3.50804 0.68199,-6.5256 m 269.51803,-39.7048 -3.7509,0 -0.0512,-2.82605 c -1.39204,2.14406 -3.31185,3.21375 -5.74552,3.21375 -3.15303,0 -5.3111,-1.41069 -6.47889,-4.23674 -0.74742,-1.88247 -1.12108,-4.80661 -1.12108,-8.76775 0,-3.73692 0.43909,-6.56297 1.3126,-8.47814 1.17242,-2.66256 3.23247,-3.99384 6.18928,-3.99384 2.46633,0 4.32081,0.95759 5.554,2.87276 l 0,-13.00916 3.89574,0 0,30.59605 c 0,0.87818 0.0654,2.41966 0.19619,4.62912 m -3.94713,-12.0329 c 0,-3.34454 -0.2429,-5.7315 -0.72866,-7.16087 -0.68203,-2.04597 -1.99929,-3.06895 -3.94716,-3.06895 -1.91517,0 -3.21372,1.06969 -3.89571,3.21375 -0.45777,1.39668 -0.68198,3.57343 -0.68198,6.53027 0,3.21376 0.25672,5.56802 0.77537,7.06279 0.68199,2.01327 1.9012,3.02223 3.65751,3.02223 2.0787,0 3.45666,-1.02765 4.13864,-3.07361 0.45778,-1.33128 0.68199,-3.50804 0.68199,-6.52561 m -19.48708,12.0329 -3.84906,0 0,-15.68574 c 0,-2.11136 -0.145,-3.55942 -0.43909,-4.3395 -0.5512,-1.42937 -1.67228,-2.14406 -3.35856,-2.14406 -1.65822,0 -2.94279,0.81278 -3.84903,2.43834 -0.74735,1.39668 -1.12108,3.05027 -1.12108,4.97011 l 0,14.76085 -3.84899,0 0,-19.19377 c 0,-2.17676 -0.0654,-3.96581 -0.19619,-5.36249 l 3.80228,0 0,3.36323 c 1.36398,-2.59716 3.48935,-3.89574 6.3808,-3.89574 4.32081,0 6.47892,2.54578 6.47892,7.64668 l 0,17.44209 z m -23.53144,0 -3.84899,0 -0.0467,-3.11566 c -1.49477,2.33557 -3.55942,3.50336 -6.18928,3.50336 -4.38621,0 -6.57698,-2.51308 -6.57698,-7.54858 l 0,-17.39538 3.84906,0 0,15.69041 c 0,2.01326 0.16368,3.44264 0.4858,4.28811 0.5512,1.39668 1.69092,2.09268 3.40998,2.09268 3.21839,0 4.82523,-2.38696 4.82523,-7.16088 l 0,-14.91032 3.89574,0 0,19.14706 c 0,1.91984 0.0654,3.71824 0.19619,5.4092 m -33.03219,-21.33922 -0.82679,-0.0983 c -1.85449,0 -3.24179,0.56988 -4.16667,1.70497 -0.92489,1.13977 -1.38737,2.64855 -1.38737,4.53102 l 0,15.19994 -3.90038,0 0,-20.07195 c 0,-1.65359 -0.0467,-3.14836 -0.14462,-4.47964 l 3.80232,0 0,3.21376 c 1.33128,-2.46637 3.40994,-3.70423 6.23599,-3.70423 0.25673,0 0.38771,1.23786 0.38771,3.70423 m -17.49022,21.33921 -3.84903,0 0,-15.68573 c 0,-2.07867 -0.14462,-3.52673 -0.43909,-4.33951 -0.5512,-1.42937 -1.67227,-2.14406 -3.35856,-2.14406 -3.31652,0 -4.97011,2.41966 -4.97011,7.25898 l 0,14.91032 -3.84903,0 0,-35.22517 3.84903,0 0,13.49496 c 1.5882,-2.24215 3.65284,-3.35856 6.18461,-3.35856 4.28812,0 6.43218,2.56447 6.43218,7.69806 l 0,17.39071 z m -22.60603,-11.74141 -12.85968,0 0,1.65826 c 0,2.49906 0.22421,4.30213 0.68198,5.40452 0.64929,1.59286 1.91518,2.38696 3.79765,2.38696 2.82605,0 4.30213,-1.80306 4.43293,-5.40452 l 3.80231,0 c -0.22907,5.4559 -2.97552,8.18386 -8.23524,8.18386 -3.40994,0 -5.75019,-1.15378 -7.01607,-3.46133 -0.94357,-1.71898 -1.41069,-4.49832 -1.41069,-8.32866 0,-4.35352 0.40639,-7.46918 1.2145,-9.35632 1.27055,-2.95217 3.76962,-4.43293 7.50654,-4.43293 3.50804,0 5.84362,1.29858 7.01608,3.90041 0.71001,1.62089 1.06969,4.40023 1.06969,8.32867 l 0,1.12108 z m -3.89574,-2.62986 c 0,-2.37295 -0.16331,-4.04522 -0.49047,-5.01682 -0.5839,-1.95254 -1.83577,-2.92414 -3.75094,-2.92414 -2.66256,0 -4.17134,1.58819 -4.53102,4.77392 -0.13079,1.10239 -0.1917,2.15807 -0.1917,3.16704 l 8.96394,0 z m -16.03047,14.37127 -4.53101,0 -8.08577,-13.73786 7.35707,-10.81839 4.47963,0 -7.64668,10.72029 8.42676,13.83596 z m -12.76626,0 -3.84907,0 0,-35.22517 3.84907,0 0,35.22517 z m -8.47582,-21.33921 -0.8268,-0.0983 c -1.85445,0 -3.24178,0.56988 -4.16667,1.70497 -0.92489,1.13976 -1.38733,2.64854 -1.38733,4.53102 l 0,15.19993 -3.90041,0 0,-20.07195 c 0,-1.65359 -0.0467,-3.14835 -0.14462,-4.47963 l 3.80232,0 0,3.21375 c 1.33128,-2.46637 3.40994,-3.70422 6.23599,-3.70422 0.2571,0 0.3877,1.23785 0.3877,3.70422 m -16.36959,9.5978 -12.85968,0 0,1.65826 c 0,2.49907 0.22421,4.30213 0.68199,5.40452 0.64929,1.59287 1.91517,2.38696 3.79764,2.38696 2.82605,0 4.30214,-1.80306 4.43293,-5.40452 l 3.80232,0 c -0.22908,5.45591 -2.97553,8.18386 -8.23525,8.18386 -3.40994,0 -5.75019,-1.15378 -7.01607,-3.46132 -0.94357,-1.71899 -1.41069,-4.49833 -1.41069,-8.32867 0,-4.35352 0.40639,-7.46918 1.2145,-9.35632 1.27056,-2.95217 3.76962,-4.43293 7.50655,-4.43293 3.50803,0 5.84361,1.29858 7.01607,3.90042 0.71001,1.62089 1.06969,4.40022 1.06969,8.32866 l 0,1.12108 z m -3.89574,-2.62986 c 0,-2.37294 -0.1633,-4.04522 -0.49047,-5.01682 -0.58389,-1.95254 -1.83576,-2.92414 -3.75094,-2.92414 -2.66255,0 -4.17134,1.58819 -4.53101,4.77392 -0.1308,1.10239 -0.19171,2.15807 -0.19171,3.16704 l 8.96394,0 z m -14.81267,-20.85296 -9.30494,35.22517 -4.97011,0 -9.16013,-35.22517 4.38621,0 7.40378,31.37614 7.55326,-31.37614 4.09193,0 z m -37.17304,13.88502 -0.8268,-0.0983 c -1.85444,0 -3.24178,0.56988 -4.1667,1.70497 -0.92489,1.13976 -1.3873,2.64854 -1.3873,4.53102 l 0,15.19993 -3.90041,0 0,-20.07194 c 0,-1.65359 -0.0467,-3.14836 -0.14462,-4.47964 l 3.80232,0 0,3.21375 c 1.33128,-2.46637 3.4099,-3.70422 6.23599,-3.70422 0.25673,0 0.3877,1.23785 0.3877,3.70422 m -20.02572,-8.8682 -3.70422,0 0,-4.67582 3.70422,0 0,4.67582 z m -7.64667,0 -3.60613,0 0,-4.67582 3.60613,0 0,4.67582 z m 10.37698,30.20741 -3.84907,0 -0.0467,-3.11565 c -1.49477,2.33557 -3.55942,3.50336 -6.18928,3.50336 -4.38621,0 -6.57698,-2.51308 -6.57698,-7.54858 l 0,-17.39538 3.84899,0 0,15.69041 c 0,2.01326 0.16368,3.44264 0.4858,4.28811 0.55124,1.39668 1.691,2.09268 3.40998,2.09268 3.21839,0 4.82527,-2.38696 4.82527,-7.16088 l 0,-14.91032 3.89578,0 0,19.14706 c 0,1.91984 0.0654,3.71824 0.19618,5.40919 m -21.48543,-32.3496 c -0.29447,-0.0336 -0.7941,-0.0467 -1.50878,-0.0467 -1.20516,0 -2.01327,0.43442 -2.43835,1.31259 -0.25672,0.61659 -0.38774,1.60688 -0.38774,2.97086 l 0,3.55941 4.19006,0 0,2.82605 -4.19006,0 0,21.72554 -3.84899,0 0,-21.72554 -3.60617,0 0,-2.82605 3.60617,0 0,-2.68124 c 0,-2.66256 0.32249,-4.56371 0.9716,-5.6988 0.91083,-1.69096 2.66723,-2.53644 5.26439,-2.53644 0.68199,0 1.33124,0.0336 1.94787,0.0983 l 0,3.02224 z m 341.47625,-19.38809 -3.84903,0 0,-16.5172 c 0,-1.78438 -0.16367,-3.05026 -0.4858,-3.79765 -0.49047,-1.20048 -1.46207,-1.80306 -2.92414,-1.80306 -2.89144,0 -4.33483,2.22347 -4.33483,6.67508 l 0,15.44283 -3.84903,0 0,-16.70872 c 0,-1.72365 -0.13079,-2.92414 -0.39238,-3.60613 -0.4531,-1.20048 -1.44338,-1.80306 -2.97085,-1.80306 -1.46207,0 -2.58315,0.71469 -3.36323,2.14406 -0.68199,1.26588 -1.02298,2.90546 -1.02298,4.91872 l 0,15.05513 -3.84903,0 0,-20.31485 c 0,-1.46207 -0.0654,-2.87743 -0.19171,-4.2414 l 3.84903,0 0,3.21842 c 1.29858,-2.50374 3.23244,-3.75093 5.7969,-3.75093 2.79335,0 4.61043,1.24719 5.45591,3.75093 1.42937,-2.50374 3.45665,-3.75093 6.09119,-3.75093 2.23748,0 3.83034,0.7287 4.77391,2.19077 0.84548,1.26588 1.26589,3.33053 1.26589,6.18927 l 0,16.70872 z m -34.10409,0 -3.84903,0 -0.0467,-3.11566 c -1.49477,2.33558 -3.55942,3.50337 -6.18928,3.50337 -4.38621,0 -6.57698,-2.51308 -6.57698,-7.54859 l 0,-17.39537 3.84903,0 0,15.6904 c 0,2.01327 0.16368,3.44264 0.4858,4.28812 0.5512,1.39667 1.69096,2.09268 3.40994,2.09268 3.21843,0 4.8253,-2.38696 4.8253,-7.16088 l 0,-14.91032 3.89571,0 0,19.14705 c 0,1.91985 0.0654,3.71824 0.19619,5.4092 m -23.72524,-30.54841 -4.23674,0 0,-4.19002 4.23674,0 0,4.19002 z m -0.19619,30.54934 -3.84903,0 0,-24.55625 3.84903,0 0,24.55625 z m -8.47676,-21.34014 -0.82679,-0.0983 c -1.85445,0 -3.24178,0.56988 -4.16667,1.70497 -0.92489,1.13976 -1.38733,2.64854 -1.38733,4.53102 l 0,15.19993 -3.90042,0 0,-20.07194 c 0,-1.65359 -0.0467,-3.14836 -0.14499,-4.47964 l 3.80232,0 0,3.21375 c 1.33128,-2.46637 3.40994,-3.70422 6.23599,-3.70422 0.2571,0 0.3877,1.23785 0.3877,3.70422 m -16.37003,9.5978 -12.85969,0 0,1.65826 c 0,2.49907 0.22422,4.30213 0.68199,5.40453 0.64929,1.59286 1.91517,2.38696 3.79765,2.38696 2.82604,0 4.30213,-1.80307 4.43292,-5.40453 l 3.80232,0 c -0.22907,5.45591 -2.97552,8.18386 -8.23524,8.18386 -3.40995,0 -5.75019,-1.15377 -7.01608,-3.46132 -0.94357,-1.71899 -1.41068,-4.49832 -1.41068,-8.32867 0,-4.35351 0.40639,-7.46917 1.2145,-9.35632 1.27051,-2.95217 3.76958,-4.43292 7.50654,-4.43292 3.50804,0 5.84361,1.29858 7.01607,3.90041 0.71002,1.62089 1.0697,4.40023 1.0697,8.32867 l 0,1.12107 z m -3.89575,-2.62986 c 0,-2.37294 -0.16367,-4.04522 -0.49047,-5.01682 -0.58389,-1.95254 -1.83576,-2.92414 -3.75093,-2.92414 -2.66256,0 -4.17134,1.58819 -4.53102,4.77392 -0.13079,1.10239 -0.19133,2.15807 -0.19133,3.16704 l 8.96394,0 z m -16.76155,14.37127 c -1.20045,0.1308 -2.14402,0.19619 -2.82601,0.19619 -2.20946,0 -3.71824,-0.47178 -4.53106,-1.41536 -0.68199,-0.84548 -1.02294,-2.38696 -1.02294,-4.62911 l 0,-15.88192 -3.65285,0 0,-2.82605 3.65285,0 0,-4.53102 3.84903,-1.70497 0,6.23599 4.38617,0 0,2.82605 -4.38617,0 0,15.4475 c 0,1.36398 0.19619,2.27953 0.58389,2.75131 0.39238,0.47179 1.12108,0.70535 2.19541,0.70535 0.19133,0 0.77544,-0.0654 1.75168,-0.19619 l 0,3.02223 z m -15.2978,-6.72317 c 0,4.77392 -2.56447,7.16088 -7.69807,7.16088 -5.0355,0 -7.50187,-2.64854 -7.40381,-7.94096 l 3.84907,0 c 0,0.4858 0.0149,0.94357 0.0467,1.36398 0.22907,2.56446 1.42937,3.84903 3.60613,3.84903 2.46637,0 3.70422,-1.26589 3.70422,-3.79765 0,-1.36398 -0.39237,-2.43834 -1.17246,-3.21843 -0.4858,-0.51849 -1.57417,-1.23318 -3.26513,-2.14406 -2.30288,-1.23318 -3.76495,-2.14406 -4.38154,-2.72795 -1.23319,-1.13509 -1.85445,-2.64387 -1.85445,-4.53102 0,-2.11136 0.70067,-3.71824 2.09735,-4.82063 1.29858,-1.04167 3.03625,-1.56016 5.21297,-1.56016 2.53176,0 4.33486,0.59323 5.40923,1.77971 1.06969,1.1818 1.63957,3.01289 1.70497,5.47926 l -3.84903,0 c 0,-3.05494 -1.15378,-4.57773 -3.46133,-4.57773 -1.00429,0 -1.80306,0.30829 -2.38695,0.92489 -0.5839,0.61659 -0.87818,1.42937 -0.87818,2.43367 0,1.10706 0.47178,2.04596 1.41536,2.82605 0.4858,0.45777 1.63954,1.17245 3.45665,2.14405 1.98524,1.07437 3.34918,1.98057 4.09657,2.72796 1.16778,1.23318 1.75168,2.77933 1.75168,4.62911 m -20.65812,-23.82524 -4.23674,0 0,-4.19002 4.23674,0 0,4.19002 z m -0.19133,30.54935 -3.84903,0 0,-24.55626 3.84903,0 0,24.55626 z m -11.11036,-9.4e-4 -3.84907,0 0,-15.68573 c 0,-2.11136 -0.14462,-3.55942 -0.43905,-4.3395 -0.55123,-1.42937 -1.67231,-2.14406 -3.35859,-2.14406 -1.65823,0 -2.94279,0.81278 -3.84903,2.43834 -0.74735,1.39668 -1.12108,3.05026 -1.12108,4.97011 l 0,14.76084 -3.84899,0 0,-19.19377 c 0,-2.17675 -0.0654,-3.9658 -0.19619,-5.36248 l 3.79764,0 0,3.36323 c 1.36862,-2.59716 3.49403,-3.89574 6.38543,-3.89574 4.32082,0 6.47893,2.54578 6.47893,7.64668 l 0,17.44208 z m -23.53095,-30.54841 -4.23674,0 0,-4.19002 4.23674,0 0,4.19002 z m -0.19619,30.54935 -3.84903,0 0,-24.55626 3.84903,0 0,24.55626 z m -11.10707,-9.4e-4 -3.84903,0 0,-16.51719 c 0,-1.78439 -0.1633,-3.05027 -0.4858,-3.79765 -0.49047,-1.20049 -1.46207,-1.80307 -2.92414,-1.80307 -2.89145,0 -4.33483,2.22347 -4.33483,6.67508 l 0,15.44283 -3.84903,0 0,-16.70871 c 0,-1.72366 -0.13079,-2.92414 -0.39238,-3.60613 -0.4531,-1.20049 -1.44339,-1.80307 -2.97085,-1.80307 -1.46207,0 -2.58315,0.71469 -3.36323,2.14406 -0.68199,1.26588 -1.02299,2.90546 -1.02299,4.91873 l 0,15.05512 -3.84903,0 0,-20.31484 c 0,-1.46207 -0.0654,-2.87743 -0.19133,-4.24141 l 3.84903,0 0,3.21843 c 1.29858,-2.50374 3.23244,-3.75094 5.79691,-3.75094 2.79334,0 4.61042,1.2472 5.4559,3.75094 1.42938,-2.50374 3.45666,-3.75094 6.09119,-3.75094 2.23748,0 3.83034,0.7287 4.77391,2.19077 0.84548,1.26588 1.26589,3.33053 1.26589,6.18928 l 0,16.70871 z m -32.83746,-6.72317 c 0,4.77392 -2.56446,7.16088 -7.69806,7.16088 -5.0355,0 -7.50187,-2.64854 -7.40378,-7.94096 l 3.84903,0 c 0,0.4858 0.0149,0.94357 0.0467,1.36398 0.2287,2.56446 1.42938,3.84903 3.60613,3.84903 2.46637,0 3.70423,-1.26589 3.70423,-3.79765 0,-1.36398 -0.39238,-2.43834 -1.17246,-3.21843 -0.4858,-0.51849 -1.57418,-1.23318 -3.26514,-2.14406 -2.30288,-1.23318 -3.76495,-2.14406 -4.38154,-2.72795 -1.23318,-1.13509 -1.85445,-2.64387 -1.85445,-4.53102 0,-2.11136 0.70068,-3.71824 2.09735,-4.82063 1.29858,-1.04167 3.03625,-1.56016 5.21301,-1.56016 2.53176,0 4.33483,0.59323 5.40919,1.77971 1.0697,1.1818 1.63958,3.01289 1.70497,5.47926 l -3.84903,0 c 0,-3.05494 -1.15377,-4.57773 -3.46132,-4.57773 -1.0043,0 -1.80307,0.30829 -2.38696,0.92489 -0.58389,0.61659 -0.87818,1.42937 -0.87818,2.43367 0,1.10706 0.47179,2.04596 1.41536,2.82605 0.4858,0.45777 1.63958,1.17245 3.45666,2.14405 1.98524,1.07437 3.34921,1.98057 4.0966,2.72796 1.16779,1.23318 1.75168,2.77933 1.75168,4.62911 m -19.7314,-5.01824 -12.85972,0 0,1.65826 c 0,2.49907 0.22421,4.30213 0.68199,5.40453 0.64932,1.59286 1.91521,2.38696 3.79768,2.38696 2.82605,0 4.30213,-1.80307 4.43293,-5.40453 l 3.80231,0 c -0.22907,5.45591 -2.97552,8.18386 -8.23524,8.18386 -3.40994,0 -5.75019,-1.15377 -7.01607,-3.46132 -0.94357,-1.71899 -1.41069,-4.49832 -1.41069,-8.32867 0,-4.35351 0.40639,-7.46917 1.2145,-9.35632 1.27055,-2.95217 3.76962,-4.43292 7.50654,-4.43292 3.50804,0 5.84362,1.29858 7.01608,3.90041 0.71001,1.62089 1.06969,4.40023 1.06969,8.32867 l 0,1.12107 z m -3.89574,-2.62986 c 0,-2.37294 -0.16331,-4.04522 -0.49047,-5.01682 -0.5839,-1.95254 -1.83577,-2.92414 -3.75094,-2.92414 -2.66256,0 -4.17134,1.58819 -4.53102,4.77392 -0.13079,1.10239 -0.19133,2.15807 -0.19133,3.16704 l 8.96395,0 z m -19.00274,14.37127 -3.75094,0 -0.0512,-2.82604 c -1.392,2.14406 -3.31185,3.21375 -5.74552,3.21375 -3.15303,0 -5.3111,-1.41069 -6.47889,-4.23674 -0.74738,-1.88247 -1.12108,-4.80661 -1.12108,-8.76775 0,-3.73692 0.43909,-6.56297 1.3126,-8.47814 1.17246,-2.66256 3.23244,-3.99384 6.18928,-3.99384 2.46636,0 4.32081,0.95759 5.554,2.87276 l 0,-13.00916 3.89574,0 0,30.59605 c 0,0.87818 0.0654,2.41966 0.19619,4.62911 m -3.94713,-12.03289 c 0,-3.34454 -0.2429,-5.7315 -0.7287,-7.16088 -0.68199,-2.04596 -1.99925,-3.06894 -3.94712,-3.06894 -1.91517,0 -3.21375,1.06969 -3.89574,3.21375 -0.45778,1.39668 -0.68666,3.57343 -0.68666,6.53027 0,3.21376 0.26158,5.56802 0.78008,7.06279 0.68199,2.01326 1.90116,3.02223 3.65751,3.02223 2.07867,0 3.45666,-1.02298 4.13864,-3.07362 0.45778,-1.33127 0.68199,-3.50803 0.68199,-6.5256 m -19.48711,12.03289 -3.84903,0 0,-15.68573 c 0,-2.11136 -0.14462,-3.55942 -0.43909,-4.3395 -0.5512,-1.42937 -1.67228,-2.14406 -3.35856,-2.14406 -1.65826,0 -2.94283,0.81278 -3.84903,2.43834 -0.74739,1.39668 -1.12108,3.05026 -1.12108,4.97011 l 0,14.76084 -3.84903,0 0,-19.19377 c 0,-2.17675 -0.0654,-3.9658 -0.19619,-5.36248 l 3.80232,0 0,3.36323 c 1.36398,-2.59716 3.48935,-3.89574 6.3808,-3.89574 4.32081,0 6.47889,2.54578 6.47889,7.64668 l 0,17.44208 z m -23.53141,0 -3.84903,0 -0.0467,-3.11566 c -1.49477,2.33558 -3.55942,3.50337 -6.18928,3.50337 -4.38621,0 -6.57698,-2.51308 -6.57698,-7.54858 l 0,-17.39538 3.84903,0 0,15.6904 c 0,2.01327 0.1633,3.44264 0.4858,4.28812 0.5512,1.39668 1.69096,2.09268 3.40994,2.09268 3.21843,0 4.8253,-2.38696 4.8253,-7.16088 l 0,-14.91032 3.89575,0 0,19.14706 c 0,1.91984 0.0654,3.71824 0.19618,5.40919 m -23.09324,-9.64638 c 0,3.57344 -0.89219,6.1052 -2.68125,7.59997 -1.62089,1.36398 -4.23673,2.04597 -7.84286,2.04597 l -8.62295,0 0,-35.22517 9.35632,0 c 3.14836,0 5.46058,0.68199 6.94133,2.04596 1.47609,1.36398 2.21413,3.62482 2.21413,6.77318 0,2.20945 -0.37369,3.90041 -1.11641,5.0682 -0.78008,1.33128 -2.16274,2.30755 -4.14331,2.92414 2.27485,0.55119 3.84903,1.57418 4.72721,3.06895 0.78008,1.29858 1.16779,3.19974 1.16779,5.6988 m -4.77392,-16.51719 c 0,-2.17676 -0.53719,-3.69956 -1.60688,-4.57773 -0.94357,-0.78009 -2.47104,-1.16779 -4.5824,-1.16779 l -4.09193,0 0,12.03289 4.33483,0 c 3.96581,0 5.94638,-2.09735 5.94638,-6.28737 m 0.53718,16.32101 c 0,-2.30288 -0.49514,-4.0172 -1.4901,-5.13827 -0.99028,-1.12108 -2.62052,-1.68162 -4.89537,-1.68162 l -4.43292,0 0,13.35016 3.75093,0 c 2.47104,0 4.22273,-0.40639 5.26439,-1.21917 1.20049,-0.94358 1.80307,-2.70927 1.80307,-5.3111 m -46.83205,-24.64688 0,86.22949 -6.46955,0 -8.62295,0 0,-86.22949 15.0925,0 z m -54.35866,30.14015 c 4.41424,6.98338 7.87089,6.86193 13.0839,6.86193 -4.31614,-3.30718 -7.17022,-7.54392 -8.52952,-9.70666 l -8.06242,-12.90173 c -0.78942,-3.98449 -2.8494,-7.7074 -5.93236,-10.48206 1.03233,-0.39238 1.89649,-0.80344 2.41966,-1.19582 -5.2691,0 -10.48207,-2.67657 -13.35483,-2.67657 -1.84511,0 -3.03625,1.10239 -3.03625,2.56446 0.12145,1.62089 1.79372,3.27448 4.88136,3.27448 0.70534,0 1.59753,-0.0889 2.58314,-0.25224 1.67224,2.3309 3.02224,4.43759 3.02224,7.44582 0,5.65209 -6.75449,10.05232 -13.5697,10.05232 l -1.13976,-0.0467 c -0.61659,-1.39668 -2.6719,-3.75094 -2.6719,-6.42284 0,-4.48431 2.92881,-8.15116 2.92881,-12.5981 0,-2.76065 -1.34996,-4.47029 -1.86379,-5.18031 0.8361,-0.78008 1.75168,-1.733 1.96189,-2.38696 -0.4858,0.20553 -1.06036,0.23804 -1.90116,0.23804 -3.26981,0 -5.93237,-0.85482 -8.52953,-0.85482 -1.48076,0 -1.88247,0.45778 -1.88247,0.89687 l 0.0699,0.40171 c -0.55587,-0.21973 -1.07437,-0.35949 -1.69096,-0.47645 -0.7614,-0.14462 -1.58819,-0.21488 -2.46637,-0.21488 -3.1577,0 -4.27878,1.32194 -4.27878,2.45703 0,0.95759 0.75673,2.70927 1.61155,4.04055 1.23315,-0.61659 2.70927,-1.037 3.38192,-1.037 1.67694,0 3.16704,1.59754 3.95646,3.48468 -1.12575,0.13528 -1.34529,0.18685 -2.48509,0.18685 -3.06891,0 -5.16159,-1.10239 -5.59133,-1.10239 l -0.12594,0.0889 c 0,0.43442 0.87351,1.56951 2.59249,2.20012 2.26084,0.82679 5.6521,1.17246 6.21731,1.26588 0,0.0983 -0.57455,1.16779 -1.21454,1.37332 l -0.40168,0.0187 c -2.3636,-0.46711 -3.02224,-0.66797 -6.02115,-1.80773 l -0.14462,0.12145 c 0,1.1818 3.06895,3.80232 5.82025,4.80194 -2.29824,2.93349 -5.16629,5.93237 -6.52093,10.50543 l -1.13979,0.0467 c -6.81518,0 -13.56967,-4.40023 -13.56967,-10.05232 0,-3.00823 1.35464,-5.11492 3.02691,-7.44582 0.98094,0.1633 1.8778,0.25224 2.57848,0.25224 3.08763,0 4.7599,-1.65359 4.88602,-3.27448 0,-1.46207 -1.19114,-2.56446 -3.04092,-2.56446 -2.86809,0 -8.081093,2.67657 -13.350154,2.67657 0.518498,0.39238 1.382662,0.80344 2.414986,1.19582 -3.082961,2.77466 -5.142977,6.49757 -5.932364,10.48206 l -8.05774,12.90173 c -1.359305,2.16274 -4.22276,6.39948 -8.538868,9.70666 5.217678,0 8.679003,0.12145 13.093243,-6.86193 l 4.129299,-6.61435 c 0.308296,0.85949 0.68666,1.69563 1.125748,2.51308 l -8.216558,13.15397 c -1.368648,2.18143 -4.204038,6.38079 -8.538869,9.71132 5.217679,0 8.674332,0.12145 13.088572,-6.85725 l 7.076797,-11.32755 c 0.527841,0.56054 1.088379,1.11174 1.672273,1.63958 l -9.986926,15.98936 c -1.373319,2.18143 -4.190024,6.37145 -8.534197,9.69731 5.217678,0 8.674332,0.12631 13.088572,-6.85258 l 9.734686,-15.58764 c 0.64462,0.40172 1.29858,0.79877 1.9759,1.17246 l -11.883419,19.01159 c -1.368648,2.19078 -4.190024,6.36679 -8.529526,9.70199 5.213007,0 8.674294,0.12145 13.083901,-6.85725 l 12.238424,-19.58615 c 0.72403,0.28027 1.4574,0.54653 2.20478,0.78475 L 97.190678,467.0468 c -1.349964,2.1534 -4.236736,6.40415 -8.529564,9.69731 5.213045,0 8.67437,0.12145 13.083936,-6.85258 l 14.73749,-23.58932 0.44376,0.0841 c 0.40172,1.27522 0.68199,2.4617 0.68199,3.64817 0,7.40845 -4.86267,13.9574 -10.70161,19.01159 0.37369,0.16368 1.02294,0.21973 1.62556,0.21973 1.20516,0 1.98524,-0.0654 2.53176,-0.16367 -1.35463,3.07362 -4.26009,7.0441 -5.72683,9.0994 -1.9105,-0.34566 -4.68984,-0.61192 -6.511589,-0.61192 -1.90583,0 -2.120703,1.11174 -2.120703,2.10669 0,1.733 0.808109,3.10632 1.751682,3.87239 0.355008,-0.88285 1.064986,-2.06465 4.58707,-2.06465 l 0.35015,0.0187 c -1.02765,1.14911 -4.250747,3.75094 -4.250747,5.84362 0,1.392 1.527467,3.47066 3.531357,3.47066 -0.12145,-0.44376 -0.10277,-0.85949 -0.10277,-1.16779 0,-1.7003 1.50408,-3.68554 2.77467,-5.07287 -0.0374,0.41573 -0.0187,0.37369 -0.0187,0.85015 0,4.01719 0.36435,5.8623 2.91013,5.8623 1.25187,0 2.11603,-0.68666 2.41032,-0.89219 -1.65359,-1.5228 -1.73767,-2.71861 -1.73767,-4.97478 0,-0.58389 0.004,-1.15377 0.0149,-1.94787 0.004,-0.51383 -0.004,-1.19582 -0.0889,-1.68629 0.91554,-0.12593 1.28456,-0.12593 1.98524,-0.12593 0,0 3.62014,-0.28961 4.49365,1.59286 0.98094,-0.90153 2.41031,-2.17208 2.41031,-3.57343 0,-0.92489 -0.4438,-1.9759 -2.30755,-1.9759 -0.70538,0 -2.92418,0.43442 -4.78326,0.43442 0.49514,-1.11173 2.71861,-4.36286 4.6478,-6.71712 0.28961,0.91088 0.74271,1.90116 1.75631,2.70927 0.13565,-1.51345 1.0277,-6.3154 3.40064,-9.11809 0.27541,1.89182 0.64462,3.83969 0.64462,7.94096 0,9.97291 -2.3963,17.33932 -7.48786,18.74534 0.66331,1.15377 2.05998,2.19077 3.51738,2.19077 1.85912,0 2.87743,-2.10669 3.90976,-4.09193 0.54185,1.46674 2.02728,5.05886 3.51737,5.05886 1.49006,0 2.9802,-3.59212 3.52205,-5.05886 1.03233,1.98524 2.04597,4.09193 3.90976,4.09193 1.4574,0 2.85874,-1.037 3.52205,-2.19077 -5.09156,-1.40602 -7.49253,-8.77243 -7.49253,-18.74534 0,-4.10127 0.36921,-6.04914 0.64462,-7.94096 2.37294,2.80269 3.26513,7.60464 3.4006,9.11809 1.01364,-0.80811 1.47141,-1.79839 1.76102,-2.70927 1.92448,2.35426 4.14799,5.60539 4.6478,6.71712 -1.86379,0 -4.08259,-0.43442 -4.78793,-0.43442 -1.86379,0 -2.30288,1.05101 -2.30288,1.9759 0,1.40135 1.42937,2.6719 2.41031,3.57343 0.86884,-1.88247 4.49365,-1.59286 4.49365,-1.59286 0.70068,0 1.0697,0 1.98057,0.12593 -0.0841,0.49047 -0.0889,1.17246 -0.0841,1.68629 0.007,0.7941 0.007,1.36398 0.0149,1.94787 0,2.25617 -0.0889,3.45198 -1.74234,4.97478 0.29895,0.20553 1.16312,0.89219 2.41031,0.89219 2.55045,0 2.9148,-1.84511 2.9148,-5.8623 0,-0.47646 0.0149,-0.43442 -0.0187,-0.85015 1.26588,1.38733 2.77466,3.37257 2.77466,5.07287 0,0.3083 0.0149,0.72403 -0.10762,1.16779 2.0086,0 3.53139,-2.07866 3.53139,-3.47066 0,-2.09268 -3.21842,-4.69451 -4.25075,-5.84362 l 0.35501,-0.0187 c 3.52205,0 4.23207,1.1818 4.5824,2.06465 0.94358,-0.76607 1.75168,-2.13939 1.75168,-3.87239 0,-0.99495 -0.21487,-2.10669 -2.1207,-2.10669 -1.81708,0 -4.59641,0.26644 -6.51159,0.61192 -1.46674,-2.0553 -4.36752,-6.02578 -5.72216,-9.0994 0.54185,0.0983 1.32194,0.16367 2.52709,0.16367 0.60258,0 1.25187,-0.0561 1.62557,-0.21973 -5.83895,-5.05419 -10.70162,-11.60314 -10.70162,-19.01159 0,-1.18647 0.28027,-2.37295 0.68199,-3.64817 l 0.44357,-0.0841 14.73749,23.58932 c 4.40957,6.97403 7.8709,6.85258 13.0839,6.85258 -4.29279,-3.29316 -7.17956,-7.54391 -8.52485,-9.69731 l -13.83132,-22.13193 c 0.74742,-0.23841 1.48546,-0.50448 2.20945,-0.78475 l 12.23379,19.58615 c 4.41424,6.9787 7.87089,6.85725 13.08857,6.85725 -4.34417,-3.3352 -7.16088,-7.51121 -8.5342,-9.70199 l -11.88345,-19.01159 c 0.67736,-0.37369 1.33599,-0.77074 1.97594,-1.17246 l 9.73468,15.58764 c 4.41891,6.9787 7.8709,6.85258 13.0839,6.85258 -4.33483,-3.32586 -7.1562,-7.51588 -8.52952,-9.69731 l -9.98693,-15.98936 c 0.58857,-0.52784 1.1491,-1.07904 1.67224,-1.63958 l 7.0815,11.32755 c 4.40957,6.9787 7.86619,6.85725 13.08857,6.85725 -4.3395,-3.33053 -7.16555,-7.52989 -8.53886,-9.71132 l -8.22123,-13.15397 c 0.44372,-0.81745 0.81745,-1.65359 1.12574,-2.51308 l 4.13397,6.61435 z M 95.807867,420.07368 c 0,-4.91405 3.573432,-8.80045 4.834643,-9.8935 l 0.90153,0.20553 c -1.33595,1.6349 -3.694879,4.36753 -3.694879,7.99234 0,7.18891 7.684049,13.43424 16.381739,13.43424 -0.0516,0.61659 -0.0841,1.26121 -0.0841,1.92919 0,1.06035 0.0561,2.05063 0.16331,2.98019 -9.83745,-0.0609 -18.50244,-8.04372 -18.50244,-16.64799 m 13.33147,58.95463 -0.056,0.16816 0.17302,0 c 2.76061,0 4.10594,-0.20105 4.99813,-0.32698 0.46712,-0.0605 0.80344,-0.11211 1.16312,-0.11211 0.71469,0 1.26121,0.0702 1.26121,0.94357 0,0.59324 -0.69137,1.52747 -1.36398,2.074 -1.01831,-0.96226 -2.42433,-1.15378 -4.49365,-1.15378 -0.96693,0 -2.23281,0.17302 -2.9148,0.27093 l -0.10762,0.0149 -0.12145,0.0149 0.0422,0.32698 c 0.0792,0.56988 0.1775,1.28457 0.1775,2.24216 l -0.007,0.8735 -0.0149,1.07904 c 0,2.34959 0.3225,3.68554 1.14443,4.69918 l -0.78008,0.14013 c -1.45273,0 -1.8778,-0.63527 -1.8778,-4.83464 0,-0.84081 -0.0467,-1.63023 -0.0747,-2.15807 l -0.0422,-0.78009 -0.18236,0.145 c -2.16738,1.64891 -4.39552,4.59641 -4.53098,6.80587 -0.64929,-0.42508 -1.35464,-1.36865 -1.35464,-2.09268 0,-1.20049 1.8077,-3.00822 3.90038,-5.1009 l 1.20519,-1.20516 0.15397,-0.15396 -0.39705,-0.0983 c -0.44843,-0.11659 -1.28457,-0.32698 -1.99459,-0.32698 -2.35429,0 -3.820999,0.43909 -4.731874,1.42937 -0.322496,-0.47178 -0.597907,-1.5695 -0.597907,-2.21412 l 0.247384,-0.87818 0.808109,-0.20105 0.05605,0 c 2.587828,0 5.684798,0.46712 6.889958,0.66331 l 0.0747,0.0187 0.0467,-0.0609 c 0.20553,-0.28027 5.14297,-6.85258 6.42283,-10.34193 0.29447,-0.10763 0.55124,-0.19133 1.06506,-0.19133 0.9716,0 1.24253,0.65396 1.5228,1.65826 -3.08763,3.74626 -5.00748,6.66106 -5.70815,8.66499 m 26.6209,-10.32325 c 0.51383,0 0.77074,0.0841 1.0697,0.19133 1.27989,3.48935 6.21263,10.06166 6.42283,10.34193 l 0.0422,0.0609 0.0747,-0.0187 c 1.20983,-0.19619 4.30213,-0.66331 6.88995,-0.66331 l 0.056,0 0.80811,0.20105 0.24739,0.87818 c 0,0.64462 -0.27093,1.74234 -0.59787,2.21412 -0.90621,-0.99028 -2.37762,-1.42937 -4.72721,-1.42937 -0.71002,0 -1.54615,0.21002 -1.99925,0.32698 l -0.18685,0.0422 -0.21039,0.056 1.35931,1.35931 c 2.09267,2.09268 3.90508,3.90041 3.90508,5.1009 0,0.72403 -0.70534,1.6676 -1.35463,2.09267 -0.14014,-2.20945 -2.36832,-5.15695 -4.53569,-6.80587 l -0.18199,-0.14013 -0.0374,0.77541 c -0.0336,0.52784 -0.0792,1.31727 -0.0792,2.15807 0,4.19937 -0.42508,4.83465 -1.87781,4.83465 l -0.77541,-0.14014 c 0.81745,-1.01364 1.13973,-2.34959 1.13973,-4.69918 l -0.007,-1.07903 -0.0149,-0.87351 c 0,-0.95759 0.10277,-1.67227 0.17751,-2.24215 l 0.0422,-0.32698 -0.22908,-0.0262 c -0.67732,-0.0983 -1.94324,-0.27093 -2.91013,-0.27093 -2.07399,0 -3.48004,0.19171 -4.49832,1.15378 -0.67264,-0.54653 -1.3593,-1.48076 -1.3593,-2.074 0,-0.8735 0.54185,-0.94357 1.25654,-0.94357 0.36435,0 0.70067,0.0516 1.16779,0.11211 0.88748,0.12631 2.23281,0.32698 4.99346,0.32698 l 0.17264,0 -0.056,-0.16816 c -0.70067,-2.00393 -2.62052,-4.91873 -5.70348,-8.66499 0.27579,-1.0043 0.54649,-1.65826 1.51813,-1.65826 M 124.3358,411.36142 c -0.3083,-1.27523 -0.96226,-2.58315 -1.79373,-3.57343 -0.75672,-0.89219 -2.01326,-1.95722 -3.70422,-1.95722 -0.77074,0 -2.06465,0.3595 -2.88677,0.71002 -0.3083,-0.56054 -0.91088,-1.9105 -0.91088,-2.51775 0,-0.62594 1.06035,-1.26121 3.08296,-1.26121 4.44694,0 7.10483,2.01326 7.10483,5.38116 0,1.18648 -0.46712,2.26551 -0.89219,3.21843 m 1.99458,-4.38154 c -0.15882,-0.95292 -0.5185,-1.81708 -1.0697,-2.55512 0.0224,-0.87351 0.38304,-1.70497 1.78439,-1.01831 -0.75673,0.77541 -0.17265,2.14873 -0.17265,2.14873 0,0 1.55082,-0.71936 1.23318,-1.74234 2.30288,0.55119 0.64462,3.6435 -1.77503,3.16704 m 8.66031,29.7459 c 0.1166,-0.96693 0.18237,-1.96188 0.18237,-2.98019 0,-0.55587 0.004,-1.20049 -0.0609,-1.93386 8.59025,-0.12145 16.12482,-6.31073 16.12482,-13.42957 0,-3.62481 -2.35893,-6.35744 -3.69488,-7.99234 l 0.90621,-0.20553 c 1.25654,1.09305 4.82997,4.97945 4.82997,9.8935 0,8.54354 -8.53887,16.47049 -18.28757,16.64799"
       id="path12582"
       style="fill:#000000;fill-opacity:1;fill-rule:nonzero;stroke:none" />
  </g>
</svg>
