<?xml version="1.0" encoding="UTF-8" standalone="no"?>
<svg width="100px" height="100px" viewBox="0 0 100 100" version="1.1" xmlns="http://www.w3.org/2000/svg" xmlns:xlink="http://www.w3.org/1999/xlink" xmlns:sketch="http://www.bohemiancoding.com/sketch/ns">
    <!-- Generator: Sketch 3.3.2 (12043) - http://www.bohemiancoding.com/sketch -->
    <title>Group</title>
    <desc>Created with Sketch.</desc>
    <defs></defs>
    <g id="Page-1" stroke="none" stroke-width="1" fill="none" fill-rule="evenodd" sketch:type="MSPage">
        <g id="Group" sketch:type="MSLayerGroup" transform="translate(0.000000, -1.000000)" fill="#FFFFFF">
            <path d="M100,92.748 L100,70 C100,66.134 96.866,63 93,63 C89.134,63 86,66.134 86,70 L86,77.101 L69.808,60.908 C67.074,58.174 62.642,58.174 59.909,60.908 C57.175,63.642 57.175,68.074 59.909,70.808 L76.101,87 L69,87 C65.134,87 62,90.134 62,94 C62,97.866 65.134,101 69,101 L91.748,101 C94,101 96.368,100.815 98.092,99.092 C99.816,97.369 100,95.019 100,92.748 L100,92.748 L100,92.748 Z" id="Shape" sketch:type="MSShapeGroup" transform="translate(78.929250, 79.928750) rotate(-180.000000) translate(-78.929250, -79.928750) "></path>
            <path d="M0,92.748 L0,70 C0,66.134 3.134,63 7,63 C10.866,63 14,66.134 14,70 L14,77.101 L30.121,60.909 C32.855,58.175 37.251,58.175 39.985,60.909 C42.719,63.643 42.701,68.075 39.967,70.809 L23.757,87 L30.858,87 C34.724,87 37.858,90.134 37.858,94 C37.858,97.866 34.724,101 30.858,101 L8.11,101 C5.858,101 3.561,100.815 1.837,99.092 C0.113,97.369 0,95.019 0,92.748 L0,92.748 L0,92.748 Z" id="Shape" sketch:type="MSShapeGroup" transform="translate(21.013261, 79.929250) rotate(-180.000000) translate(-21.013261, -79.929250) "></path>
            <path d="M100,9.11 L100,31.858 C100,35.724 96.866,38.858 93,38.858 C89.134,38.858 86,35.724 86,31.858 L86,24.757 L69.808,40.95 C67.074,43.684 62.642,43.684 59.909,40.95 C57.175,38.216 57.175,33.855 59.909,31.122 L76.101,15 L69,15 C65.134,15 62,11.866 62,8 C62,4.134 65.134,1 69,1 L91.748,1 C94,1 96.368,1.114 98.092,2.837 C99.816,4.56 100,6.839 100,9.11 L100,9.11 L100,9.11 Z" id="Shape" sketch:type="MSShapeGroup" transform="translate(78.929250, 22.000250) rotate(-180.000000) translate(-78.929250, -22.000250) "></path>
            <path d="M0,9.11 L0,31.858 C0,35.724 3.134,38.858 7,38.858 C10.866,38.858 14,35.724 14,31.858 L14,24.757 L30.121,40.95 C32.855,43.684 37.251,43.684 39.985,40.95 C42.719,38.216 42.701,33.855 39.967,31.122 L23.757,15 L30.858,15 C34.724,15 37.858,11.866 37.858,8 C37.858,4.134 34.724,1 30.858,1 L8.11,1 C5.858,1 3.561,1.114 1.837,2.837 C0.113,4.56 0,6.839 0,9.11 L0,9.11 L0,9.11 Z" id="Shape" sketch:type="MSShapeGroup" transform="translate(21.013261, 22.000250) rotate(-180.000000) translate(-21.013261, -22.000250) "></path>
        </g>
    </g>
</svg>