<?xml version="1.0" encoding="UTF-8" standalone="no"?>
<!-- Created with Inkscape (http://www.inkscape.org/) -->
<svg
   xmlns:svg="http://www.w3.org/2000/svg"
   xmlns="http://www.w3.org/2000/svg"
   version="1.0"
   width="602.36218"
   height="283.03937"
   id="svg1879">
  <defs
     id="defs1881" />
  <g
     id="layer1">
    <path
       d="M 386.82406,179.96952 C 386.82406,194.68523 382.13201,209.15787 371.44256,209.15787 C 358.63174,209.15787 359.2752,191.59547 359.2752,183.76122 L 359.2752,113.75079 L 327.66324,121.54748 L 327.66324,194.9198 C 327.66324,203.46944 329.10536,211.11271 332.07713,217.29259 L 332.07713,217.29897 C 336.85847,227.23299 345.59308,233.36964 358.63174,233.36964 C 367.0719,233.36964 378.61882,230.30255 386.60438,217.29897 L 386.61217,217.29897 C 387.51926,215.81326 388.37638,214.21736 389.1754,212.48255 L 389.56339,217.29897 L 390.67564,230.9974 L 418.43603,230.9974 L 418.43603,113.75079 L 386.82406,121.54748 L 386.82406,179.96952 z M 481.87185,158.37271 L 477.605,155.2911 C 466.92406,147.45047 465.00465,144.13464 465.00465,140.10023 C 465.00465,135.34795 468.41614,130.84653 476.32303,130.84653 C 483.79126,130.84653 489.9839,133.68579 493.83548,135.82523 L 500.24177,117.55063 C 491.91004,113.75079 483.36607,111.3789 474.39689,111.3789 C 451.11701,111.3789 436.37225,127.5222 436.37225,146.02925 C 436.37225,161.93197 445.35595,172.61291 459.86615,182.81693 L 463.92961,185.66645 C 473.11634,192.07027 477.605,196.10468 477.605,202.98614 C 477.605,210.34488 471.83614,213.91015 465.64138,213.91015 C 456.46067,213.91015 448.13036,209.39244 443.43052,206.54504 L 439.2278,217.29897 L 436.37225,224.5833 C 445.99339,230.27952 456.24276,233.36964 467.34748,233.36964 C 483.15453,233.36964 494.00981,226.75818 500.15284,217.29897 C 504.22445,211.04043 506.22288,203.52756 506.22288,195.87011 C 506.22288,178.77614 496.18469,168.81307 481.87185,158.37271 z M 273.93536,230.9974 L 305.53918,230.9974 L 305.53918,58.931574 L 273.93536,66.713394 L 273.93536,230.9974 z M 43.244111,155.52567 C 43.669308,143.18185 46.875646,129.41893 58.617453,129.41893 C 72.287183,129.41893 72.287183,151.01575 72.287183,155.52567 L 43.244111,155.52567 z M 58.193673,111.3789 C 32.350922,111.3789 8.8573798,132.74149 8.8573798,172.13563 C 8.8573798,190.8333 14.17234,206.50783 23.506474,217.3135 L 23.521001,217.3135 C 32.313718,227.50511 44.663206,233.36964 59.474583,233.36964 C 76.561823,233.36964 90.443083,224.81752 96.635723,220.78346 L 94.915453,217.29897 L 88.091743,203.46342 C 84.036783,206.07626 74.424153,212.48255 65.880883,212.48255 C 51.567693,212.48255 42.175095,200.37968 42.175095,172.61291 L 100.69281,172.61291 L 100.69281,165.73145 C 100.69281,140.10023 90.017533,111.3789 58.193673,111.3789 L 58.193673,111.3789 z M 130.34178,157.93299 C 122.493,157.93299 116.13879,164.29535 116.13879,172.13563 C 116.13879,179.97803 122.493,186.33862 130.34178,186.33862 C 138.1817,186.33862 144.54442,179.97803 144.54442,172.13563 C 144.54442,164.29535 138.1817,157.93299 130.34178,157.93299 z M 543.64728,8.8518938 C 551.1598,8.8518938 557.25004,14.957364 557.25004,22.498584 L 557.25004,45.106304 L 579.85811,45.106304 C 587.39756,45.106304 593.5048,51.196894 593.5048,58.707644 C 593.5048,66.219804 587.39756,72.310394 579.85811,72.310394 L 557.25004,72.310394 L 557.25004,94.924494 C 557.25004,102.45756 551.1598,108.57118 543.64728,108.57118 C 536.13689,108.57118 530.0463,102.45756 530.0463,94.924494 L 530.0463,72.310394 L 507.43044,72.310394 C 499.89736,72.310394 493.78551,66.219804 493.78551,58.707644 C 493.78551,51.196894 499.89736,45.106304 507.43044,45.106304 L 530.0463,45.106304 L 530.0463,22.498584 C 530.0463,14.957364 536.13689,8.8518938 543.64728,8.8518938 L 543.64728,8.8518938 z M 218.93296,233.36539 C 207.82647,233.36539 199.20985,227.0048 193.7854,217.2972 L 192.87619,215.56842 L 192.87619,274.18747 L 161.26422,274.18747 L 161.26422,120.63012 L 189.02674,113.75539 L 190.52733,132.5048 C 196.71962,118.74189 208.038,111.38315 220.00162,111.38315 C 239.43879,111.38315 255.66891,128.47075 255.66891,169.99582 C 255.66891,189.33696 252.08095,205.96393 245.15591,217.31137 C 238.99871,227.4222 230.19926,233.36539 218.93296,233.36539 z M 207.82647,209.16212 C 218.93296,209.16212 222.34481,193.25551 222.34481,171.66472 C 222.34481,147.68964 218.93296,135.58677 208.46355,135.58677 C 195.00784,135.58677 192.87619,156.94937 192.87619,172.85173 C 192.87619,185.18704 193.93883,209.16212 207.82647,209.16212 z "
       style="fill:#00603f;fill-rule:evenodd"
       id="path10" />
  </g>
</svg>
