<?xml version="1.0" encoding="utf-8"?>
<!-- Generator: Adobe Illustrator 16.0.0, SVG Export Plug-In . SVG Version: 6.00 Build 0)  -->
<!DOCTYPE svg PUBLIC "-//W3C//DTD SVG 1.1//EN" "http://www.w3.org/Graphics/SVG/1.1/DTD/svg11.dtd">
<svg version="1.1" id="Ebene_1" xmlns="http://www.w3.org/2000/svg" xmlns:xlink="http://www.w3.org/1999/xlink" x="0px" y="0px"
	 width="595.279px" height="600px" viewBox="0 0 595.279 600" enable-background="new 0 0 595.279 600" xml:space="preserve">
<g>
	<path fill="#FFFFFF" d="M235.148,232.509c-3.175,0-6.351-1.216-8.769-3.634L101.446,103.953c-2.319-2.319-3.634-5.481-3.634-8.768
		c0-3.286,1.303-6.449,3.634-8.768l81.889-81.889c4.65-4.65,12.886-4.65,17.536,0l124.921,124.935
		c4.851,4.849,4.851,12.687,0,17.536l-81.888,81.888C241.497,231.306,238.323,232.509,235.148,232.509z M127.749,95.185
		l107.398,107.386l64.34-64.34L192.102,30.833L127.749,95.185z"/>
	<path fill="#FFFFFF" d="M500.978,498.388L500.978,498.388c-3.299,0-6.449-1.302-8.769-3.634L367.276,369.795
		c-2.332-2.332-3.634-5.48-3.634-8.768c0-3.299,1.302-6.449,3.634-8.769l81.9-81.876c4.849-4.849,12.687-4.849,17.536,0
		l124.922,124.959c4.849,4.85,4.849,12.688,0,17.536l-81.89,81.875C507.427,497.086,504.277,498.388,500.978,498.388z
		 M393.579,361.027L500.978,468.45l64.34-64.34L457.932,296.688L393.579,361.027z"/>
	<path fill="#FFFFFF" d="M221.941,553.191c-1.116,0-2.245-0.149-3.361-0.459c-4.365-1.229-7.727-4.75-8.729-9.165
		c-7.565-33.052-28.908-69.017-58.562-98.692c-29.678-29.641-65.655-50.971-98.705-58.561c-4.428-1.019-7.938-4.379-9.165-8.731
		c-1.228-4.377,0.037-9.065,3.286-12.228c25.411-24.767,58.734-38.408,93.808-38.408c22.435,0,44.111,5.643,63.285,16.395
		l1.835-1.835l-32.367-32.356c-12.315-12.34-12.143-32.529,0.358-45.029l152.28-152.305c12.153-12.116,33.137-12.24,45.03-0.347
		l113.771,113.76c12.29,12.315,12.143,32.505-0.321,45.005L332.03,422.552c-12.092,12.092-33.1,12.253-45.03,0.311l-32.354-32.331
		l-1.836,1.836c28.003,50.016,19.458,114.542-21.988,157.079C228.451,551.876,225.24,553.191,221.941,553.191z M81.417,369.212
		c30.472,11.484,60.817,31.575,87.406,58.114c26.54,26.59,46.631,56.911,58.114,87.356c22.869-35.653,23.576-82-0.1-117.245
		c-3.312-4.91-2.666-11.495,1.525-15.688l17.511-17.523c4.851-4.849,12.699-4.849,17.549,0l41.125,41.101
		c1.648,1.648,3.646,1.885,4.688,1.885c1.972,0,3.845-0.781,5.271-2.208l152.33-152.305c2.826-2.84,2.977-7.305,0.321-9.958
		l-113.76-113.749c-1.624-1.612-3.608-1.86-4.65-1.86c-1.996,0-3.882,0.781-5.319,2.22l-152.27,152.292
		c-2.79,2.789-2.951,7.342-0.348,9.945l41.124,41.124c2.332,2.332,3.634,5.47,3.634,8.769s-1.302,6.449-3.634,8.768l-17.523,17.523
		c-4.19,4.191-10.752,4.849-15.688,1.524C164.397,346.257,116.451,346.579,81.417,369.212z"/>
	<path fill="#FFFFFF" d="M156.794,482.886c-11.67,0-22.596-4.489-30.793-12.687c-17.103-17.114-16.842-45.217,0.559-62.666
		c4.837-4.85,12.675-4.85,17.536-0.014c4.849,4.851,4.849,12.688,0.013,17.55c-7.751,7.764-8.012,20.141-0.57,27.594
		c3.56,3.571,8.631,5.556,13.505,5.432c5.271-0.062,10.256-2.193,14.052-5.989c4.837-4.85,12.675-4.85,17.535-0.013
		c4.851,4.85,4.851,12.688,0.014,17.548c-8.396,8.408-19.521,13.121-31.289,13.259C157.166,482.886,156.981,482.886,156.794,482.886
		z"/>
	<path fill="#FFFFFF" d="M443.906,209.243c-3.175,0-6.35-1.216-8.769-3.634c-4.85-4.849-4.85-12.687,0-17.536
		c7.751-7.751,7.999-20.128,0.533-27.581c-3.497-3.51-8.197-5.432-13.258-5.432c-0.073,0-0.16,0-0.248,0
		c-5.259,0.062-10.243,2.183-14.025,5.978c-4.851,4.862-12.699,4.849-17.549,0.013c-4.85-4.837-4.85-12.687-0.013-17.536
		c8.396-8.408,19.509-13.121,31.276-13.257c11.844,0.012,23.018,4.365,31.352,12.699c17.114,17.139,16.866,45.241-0.546,62.653
		C450.256,208.027,447.08,209.243,443.906,209.243z"/>
	<path fill="#FFFFFF" d="M155.902,520.289c-21.505,0-41.596-8.259-56.663-23.327c-15.316-15.304-23.601-35.804-23.34-57.692
		c0.086-6.857,5.939-11.968,12.55-12.253c6.846,0.087,12.327,5.704,12.253,12.551c-0.186,15.168,5.52,29.317,16.072,39.872
		c10.555,10.541,25.063,15.984,39.835,16.06c7.007-0.074,12.463,5.407,12.55,12.253c0.075,6.846-5.407,12.464-12.253,12.551
		C156.572,520.289,156.237,520.289,155.902,520.289z"/>
	<path fill="#FFFFFF" d="M154.872,557.681c-31.265,0-60.458-12.018-82.385-33.919c-22.298-22.286-34.365-52.1-33.993-83.972
		c0.087-6.809,5.618-12.253,12.402-12.253c0.05,0,0.099,0,0.147,0c6.847,0.087,12.327,5.705,12.253,12.551
		c-0.298,25.139,9.189,48.627,26.713,66.15c17.513,17.485,40.89,27.061,66.09,26.639c6.733,0.496,12.477,5.407,12.562,12.24
		c0.087,6.834-5.395,12.477-12.24,12.562C155.913,557.668,155.393,557.681,154.872,557.681z"/>
	<path fill="#FFFFFF" d="M154.004,596.188c-41.422,0-80.103-15.91-109.122-44.932C15.428,521.79-0.521,482.365,0,440.225
		c0.087-6.797,5.618-12.24,12.401-12.24c0.05,0,0.1,0,0.147,0c6.847,0.074,12.341,5.691,12.253,12.551
		c-0.434,35.395,12.924,68.481,37.628,93.187c24.703,24.716,58.163,38.42,93.235,37.651c7.192-0.062,12.463,5.407,12.55,12.253
		c0.088,6.846-5.406,12.463-12.253,12.55C155.306,596.188,154.661,596.188,154.004,596.188z"/>
</g>
</svg>
