<?xml version="1.0" encoding="utf-8"?>
<!-- Generator: Adobe Illustrator 16.0.0, SVG Export Plug-In . SVG Version: 6.00 Build 0)  -->
<!DOCTYPE svg PUBLIC "-//W3C//DTD SVG 1.1//EN" "http://www.w3.org/Graphics/SVG/1.1/DTD/svg11.dtd">
<svg version="1.1" id="Ebene_1" xmlns="http://www.w3.org/2000/svg" xmlns:xlink="http://www.w3.org/1999/xlink" x="0px" y="0px"
	 width="323px" height="505px" viewBox="135.14 93.445 323 505" enable-background="new 135.14 93.445 323 505"
	 xml:space="preserve">
<path d="M203.586,597.148c-0.596,0-1.786,0-2.382-0.596c-5.357-1.19-8.334-6.548-6.548-11.905l94.649-329.19
	c1.19-4.167,4.763-7.143,9.524-7.143c4.763,0,8.334,2.976,9.524,7.143l94.055,329.19c1.19,5.357-1.19,10.715-6.548,11.905
	c-5.358,1.19-10.716-1.19-11.906-6.548l-85.72-297.045l-85.125,297.045C211.92,594.172,207.753,597.148,203.586,597.148z"/>
<path d="M378.598,558.455H221.445c-5.357,0-9.524-4.167-9.524-9.524s4.167-9.524,9.524-9.524h157.153
	c5.357,0,9.524,4.167,9.524,9.524S383.955,558.455,378.598,558.455z"/>
<path d="M353.001,491.188H239.303c-5.357,0-9.524-4.167-9.524-9.524s4.167-9.524,9.524-9.524h113.698
	c5.357,0,9.524,4.167,9.524,9.524S358.359,491.188,353.001,491.188z"/>
<path d="M339.905,423.922h-81.553c-5.357,0-9.524-4.167-9.524-9.525s4.167-9.524,9.524-9.524h81.553
	c5.357,0,9.524,4.167,9.524,9.524S345.262,423.922,339.905,423.922z"/>
<path d="M323.832,363.203h-48.218c-5.357,0-9.524-4.167-9.524-9.525c0-5.357,4.167-9.524,9.524-9.524h48.218
	c5.357,0,9.524,4.167,9.524,9.524C333.357,359.036,329.19,363.203,323.832,363.203z"/>
<path d="M383.955,560.24c-1.19,0-2.381,0-4.167-0.595l-151.201-69.053c-2.976-1.19-5.357-4.763-5.357-8.334s1.786-7.144,4.763-8.929
	l99.411-61.91l-60.718-51.194c-4.167-3.572-4.763-9.524-1.19-13.691c3.571-4.167,9.524-4.762,13.691-1.19l70.242,59.528
	c2.382,1.786,3.572,4.762,3.572,7.739c0,2.976-1.786,5.953-4.763,7.738l-95.84,59.528l135.129,61.313
	c4.762,2.382,7.143,7.739,4.762,12.501C391.099,557.859,387.528,560.24,383.955,560.24z"/>
<path d="M366.097,347.13c-2.977,0-5.357-1.19-7.144-3.572c-3.571-4.167-2.976-10.12,1.191-13.691
	c22.62-19.049,36.312-46.432,36.312-76.196c0-54.17-44.051-98.816-98.816-98.816c-54.17,0-98.816,44.05-98.816,98.816
	c0,27.978,11.905,54.766,33.336,73.815c4.167,3.571,4.167,9.524,0.595,13.691c-3.571,4.167-9.524,4.167-13.691,0.595
	c-25.001-22.621-39.288-54.17-39.288-88.102c0-64.886,52.979-117.866,117.865-117.866s117.865,52.98,117.865,117.866
	c0,35.122-15.477,68.457-42.86,91.078C370.86,346.535,368.478,347.13,366.097,347.13z"/>
<path d="M335.738,304.27c-2.977,0-5.357-1.19-7.738-3.572c-3.571-4.167-2.977-10.12,1.19-13.691
	c11.905-9.524,18.454-23.811,18.454-38.693c0-27.383-22.621-50.003-50.599-50.003c-27.979,0-50.6,22.62-50.6,50.003
	c0,14.287,5.953,27.978,16.668,37.502c4.167,3.572,4.167,9.524,0.596,13.691s-9.524,4.167-13.691,0.595
	c-14.882-13.096-23.216-32.145-23.216-51.789c0-38.098,31.55-69.053,69.647-69.053s69.647,30.955,69.647,69.053
	c0,20.834-9.524,40.479-25.597,53.575C339.905,303.675,338.119,304.27,335.738,304.27z"/>
<path d="M391.695,379.275c-2.977,0-5.358-1.19-7.144-3.572c-3.572-4.167-2.977-10.12,1.19-13.691
	c32.146-26.788,50.599-66.076,50.599-107.746c0-76.791-62.504-139.295-138.7-139.295c-76.791,0-138.7,62.504-138.7,139.295
	c0,39.884,16.668,77.386,46.432,104.174c4.167,3.572,4.167,9.525,0.596,13.691c-3.571,4.167-9.524,4.167-13.691,0.596
	c-33.931-29.764-52.98-73.22-52.98-118.461c0-86.911,71.434-158.345,158.345-158.345s158.345,70.838,158.345,158.345
	c0,47.623-20.835,92.269-57.742,122.628C396.456,378.68,394.075,379.275,391.695,379.275z"/>
</svg>
