<?xml version="1.0" encoding="utf-8"?>
<!-- Generator: Adobe Illustrator 16.0.0, SVG Export Plug-In . SVG Version: 6.00 Build 0)  -->
<!DOCTYPE svg PUBLIC "-//W3C//DTD SVG 1.1//EN" "http://www.w3.org/Graphics/SVG/1.1/DTD/svg11.dtd">
<svg version="1.1" id="Ebene_1" xmlns="http://www.w3.org/2000/svg" xmlns:xlink="http://www.w3.org/1999/xlink" x="0px" y="0px"
	 width="460px" height="601px" viewBox="67.14 46.445 460 601" enable-background="new 67.14 46.445 460 601" xml:space="preserve">
<g>
	<g>
		<path d="M338.888,644.175c-3.175,0-6.35-1.215-8.78-3.621c-4.837-4.837-4.837-12.699,0-17.536l148.82-148.819
			c22.521-22.521,22.521-59.156,0-81.678c-22.521-22.521-59.156-22.521-81.678,0L211.225,578.546
			c-32.194,32.194-84.554,32.194-116.749,0c-32.194-32.195-32.194-84.555,0-116.75l86.812-86.812c4.837-4.836,12.699-4.836,17.536,0
			c4.837,4.837,4.837,12.699,0,17.536l-86.812,86.812c-22.521,22.521-22.521,59.156,0,81.678s59.156,22.521,81.678,0
			l186.024-186.025c32.194-32.195,84.555-32.195,116.749,0c32.195,32.195,32.195,84.555,0,116.749l-148.819,148.82
			C345.238,642.96,342.063,644.175,338.888,644.175z"/>
	</g>
	<g>
		<path d="M227.273,383.74c-3.175,0-6.35-1.215-8.78-3.622l-24.803-24.803c-4.837-4.836-4.837-12.699,0-17.536
			c4.836-4.836,12.699-4.836,17.535,0l24.804,24.804c4.837,4.836,4.837,12.699,0,17.536
			C233.622,382.525,230.448,383.74,227.273,383.74z"/>
	</g>
	<g>
		<path d="M264.478,371.338c-3.175,0-6.35-1.215-8.78-3.621l-49.606-49.607c-4.837-4.836-4.837-12.699,0-17.536
			c4.837-4.836,12.699-4.836,17.536,0l49.606,49.607c4.837,4.836,4.837,12.699,0,17.536
			C270.827,370.123,267.653,371.338,264.478,371.338z"/>
	</g>
	<g>
		<path d="M301.683,358.937c-3.175,0-6.35-1.215-8.78-3.621l-74.41-74.41c-4.836-4.836-4.836-12.699,0-17.536
			c4.837-4.837,12.699-4.837,17.536,0l74.41,74.41c4.836,4.837,4.836,12.7,0,17.536
			C308.032,357.721,304.858,358.937,301.683,358.937z"/>
	</g>
	<path d="M505.244,135.707l-33.584,33.584c-2.406,2.406-5.581,3.621-8.756,3.621s-6.35-1.215-8.78-3.621
		c-4.837-4.837-4.837-12.7,0-17.536l33.584-33.583l-7.268-7.268l-33.584,33.583c-2.406,2.406-5.581,3.622-8.756,3.622
		s-6.35-1.215-8.78-3.622c-4.836-4.836-4.836-12.699,0-17.536l33.584-33.584l-7.268-7.267l-33.583,33.583
		c-2.406,2.406-5.581,3.621-8.756,3.621s-6.35-1.215-8.78-3.621c-4.837-4.836-4.837-12.699,0-17.536l33.583-33.583l-16.022-16.023
		c-2.381-2.356-5.457-3.448-8.93-3.621c-3.348,0.049-6.522,1.438-8.83,3.869c-24.629,25.895-52.756,54.667-58.809,59.578
		c-2.505,1.314-4.563,3.497-5.68,6.226c-1.935,4.638-0.868,9.971,2.679,13.518l99.214,99.213c2.455,2.381,5.63,3.597,8.78,3.597
		c3.149,0,6.35-1.215,8.78-3.621l62.008-62.008c4.837-4.837,4.837-12.7,0-17.536L505.244,135.707z"/>
	<g>
		
			<rect x="349.793" y="196.225" transform="matrix(0.7071 0.7071 -0.7071 0.7071 255.1113 -195.6273)" width="27.804" height="27.804"/>
		<path d="M471.685,226.14l-12.401-12.402c-4.837-4.836-12.699-4.836-17.536,0l-81.678-81.677c4.837-4.837,4.837-12.699,0-17.536
			l-12.401-12.401c-4.837-4.837-12.699-4.837-17.536,0l-99.213,99.213c-2.332,2.332-3.646,5.481-3.646,8.78v24.803
			c0,3.299,1.314,6.449,3.622,8.78l99.213,99.213c2.356,2.307,5.506,3.622,8.78,3.622h24.804c3.299,0,6.448-1.314,8.78-3.622
			l99.213-99.213C476.522,238.839,476.522,231.001,471.685,226.14z M409.677,218.897l-37.205,37.205
			c-2.431,2.406-5.605,3.621-8.78,3.621c-3.176,0-6.35-1.215-8.781-3.621l-9.821-9.822l-9.822,9.822
			c-2.431,2.406-5.605,3.621-8.78,3.621s-6.35-1.215-8.781-3.621c-4.836-4.836-4.836-12.699,0-17.536l9.822-9.822l-9.797-9.847
			c-4.837-4.836-4.837-12.699,0-17.536l37.205-37.205c4.837-4.837,12.699-4.837,17.536,0l37.205,37.205
			C414.513,206.198,414.513,214.036,409.677,218.897z"/>
	</g>
</g>
</svg>
