<?xml version="1.0" encoding="utf-8"?>
<!-- Generator: Adobe Illustrator 16.0.0, SVG Export Plug-In . SVG Version: 6.00 Build 0)  -->
<!DOCTYPE svg PUBLIC "-//W3C//DTD SVG 1.1//EN" "http://www.w3.org/Graphics/SVG/1.1/DTD/svg11.dtd">
<svg version="1.1" id="Ebene_1" xmlns="http://www.w3.org/2000/svg" xmlns:xlink="http://www.w3.org/1999/xlink" x="0px" y="0px"
	 width="544px" height="304px" viewBox="26.14 194.445 544 304" enable-background="new 26.14 194.445 544 304"
	 xml:space="preserve">
<path d="M565.516,346.535c0-19.93-10.369-36.378-25.115-42.277c1.798-5.286,2.792-11.102,2.792-17.251
	c0-25.037-16.34-44.646-37.205-44.646h-51.676c-20.942-27.526-50.075-44.646-82.262-44.646H145.1
	c-29.175,0-55.832,14.079-76.166,37.205c-14.097,16.037-25.151,36.419-31.866,59.528c-4.708,16.221-7.304,33.77-7.304,52.087
	c0,82.06,51.736,148.82,115.336,148.82h226.95c32.187,0,61.319-17.121,82.262-44.646h51.676c20.865,0,37.205-19.608,37.205-44.646
	c0-6.149-0.994-11.965-2.792-17.251C555.147,382.918,565.516,366.465,565.516,346.535z M59.528,346.535
	c0-65.647,38.384-119.056,85.572-119.056h157.82c-28.038,27.174-46.206,70.428-46.206,119.056s18.168,91.888,46.206,119.056H145.1
	C97.911,465.591,59.528,412.183,59.528,346.535z M528.311,368.858c-8.065,0-14.882-10.227-14.882-22.323
	c0-12.102,6.816-22.323,14.882-22.323c8.066,0,14.882,10.221,14.882,22.323C543.193,358.631,536.377,368.858,528.311,368.858z
	 M520.87,406.063c0,12.096-6.816,22.323-14.883,22.323c-8.065,0-14.882-10.227-14.882-22.323s6.816-22.323,14.882-22.323
	C514.054,383.74,520.87,393.967,520.87,406.063z M312.522,264.684h29.765h95.304c-3.756,6.227-6.012,13.941-6.012,22.323
	c0,8.364,2.244,16.067,5.988,22.288c-20.71-0.208-55.206-5.03-95.281-11.792c-14.519-2.447-29.758-5.149-45.33-7.977
	c3.643-9.256,8.191-17.721,13.399-25.281C311.052,264.464,311.754,264.684,312.522,264.684z M286.479,346.535
	c0-15.073,2.107-29.443,5.792-42.724c17.382,3.161,34.187,6.149,50.016,8.805c28.489,4.786,53.789,8.5,73.737,10.334
	c-4.227,6.423-6.769,14.638-6.769,23.585c0,7.715,1.893,14.888,5.119,20.841c-19.62-1.953-44.562-5.703-72.088-10.346
	c-17.758-2.994-36.58-6.363-55.784-9.875C286.502,346.946,286.479,346.743,286.479,346.535z M476.224,287.007
	c0,12.102-6.815,22.323-14.882,22.323s-14.882-10.221-14.882-22.323s6.815-22.323,14.882-22.323S476.224,274.905,476.224,287.007z
	 M461.342,428.386c-8.066,0-14.882-10.227-14.882-22.323s6.815-22.323,14.882-22.323s14.882,10.227,14.882,22.323
	S469.408,428.386,461.342,428.386z M424.137,346.535c0-12.102,6.816-22.323,14.882-22.323c8.066,0,14.882,10.221,14.882,22.323
	c0,12.096-6.815,22.323-14.882,22.323C430.953,368.858,424.137,358.631,424.137,346.535z M483.665,368.858
	c-8.066,0-14.882-10.227-14.882-22.323c0-12.102,6.815-22.323,14.882-22.323c8.065,0,14.882,10.221,14.882,22.323
	C498.547,358.631,491.731,368.858,483.665,368.858z M342.286,372.144c40.121,6.738,73.957,11.375,95.321,11.566
	c-3.768,6.232-6.029,13.959-6.029,22.353c0,7.745,1.904,14.936,5.154,20.9c-24.514-2.315-57.777-7.256-94.447-13.274
	c-14.311-2.345-29.108-4.845-44.146-7.429c-5.542-13.215-9.28-28.02-10.81-43.818C306.486,365.941,324.957,369.233,342.286,372.144z
	 M505.988,309.33c-8.065,0-14.882-10.221-14.882-22.323s6.816-22.323,14.882-22.323c8.066,0,14.883,10.221,14.883,22.323
	S514.054,309.33,505.988,309.33z M310.355,428.82c-1.356-1.964-2.696-3.952-3.952-6.048c11.441,1.952,22.614,3.828,33.461,5.607
	h-27.342C311.754,428.386,311.052,428.606,310.355,428.82z M372.05,249.802h-49.694c14.025-13.989,31.157-22.323,49.694-22.323
	s35.669,8.334,49.694,22.323H372.05z M372.05,465.591c-18.537,0-35.669-8.334-49.7-22.323h49.7h49.7
	C407.719,457.257,390.587,465.591,372.05,465.591z"/>
</svg>
