<?xml version="1.0" encoding="utf-8"?>
<!-- Generator: Adobe Illustrator 16.0.0, SVG Export Plug-In . SVG Version: 6.00 Build 0)  -->
<!DOCTYPE svg PUBLIC "-//W3C//DTD SVG 1.1//EN" "http://www.w3.org/Graphics/SVG/1.1/DTD/svg11.dtd">
<svg version="1.1" id="Ebene_1" xmlns="http://www.w3.org/2000/svg" xmlns:xlink="http://www.w3.org/1999/xlink" x="0px" y="0px"
	 width="595.279px" height="600px" viewBox="0 46.445 595.279 600" enable-background="new 0 46.445 595.279 600"
	 xml:space="preserve">
<g>
	<path d="M235.148,280.509c-3.175,0-6.35-1.216-8.768-3.634L101.446,151.953c-2.319-2.319-3.634-5.481-3.634-8.768
		c0-3.286,1.303-6.449,3.634-8.768l81.889-81.889c4.65-4.65,12.885-4.65,17.536,0l124.921,124.935c4.85,4.849,4.85,12.687,0,17.536
		l-81.888,81.888C241.497,279.306,238.323,280.509,235.148,280.509z M127.749,143.185l107.398,107.386l64.34-64.34L192.102,78.833
		L127.749,143.185z"/>
	<path d="M500.978,546.388L500.978,546.388c-3.299,0-6.449-1.302-8.769-3.634L367.276,417.795c-2.332-2.332-3.634-5.481-3.634-8.768
		c0-3.299,1.302-6.449,3.634-8.768l81.9-81.876c4.849-4.849,12.687-4.849,17.536,0l124.922,124.959
		c4.849,4.849,4.849,12.687,0,17.536l-81.889,81.875C507.427,545.086,504.277,546.388,500.978,546.388z M393.579,409.027
		L500.978,516.45l64.34-64.34L457.932,344.687L393.579,409.027z"/>
	<path d="M221.941,601.191c-1.116,0-2.245-0.149-3.361-0.459c-4.365-1.229-7.727-4.75-8.73-9.165
		c-7.565-33.051-28.908-69.016-58.561-98.692c-29.678-29.641-65.655-50.971-98.705-58.561c-4.428-1.018-7.938-4.378-9.165-8.731
		c-1.228-4.377,0.037-9.065,3.286-12.228c25.411-24.766,58.734-38.408,93.807-38.408c22.435,0,44.112,5.643,63.286,16.395
		l1.835-1.835l-32.368-32.356c-12.315-12.34-12.142-32.53,0.359-45.03l152.28-152.305c12.153-12.116,33.137-12.24,45.03-0.347
		l113.772,113.76c12.29,12.315,12.142,32.505-0.322,45.006L332.03,470.552c-12.092,12.092-33.1,12.253-45.03,0.31l-32.355-32.331
		l-1.836,1.836c28.003,50.016,19.458,114.542-21.988,157.079C228.451,599.876,225.24,601.191,221.941,601.191z M81.417,417.212
		c30.471,11.484,60.817,31.575,87.406,58.114c26.54,26.59,46.631,56.911,58.114,87.357c22.869-35.654,23.576-82-0.099-117.245
		c-3.312-4.911-2.666-11.496,1.525-15.688l17.511-17.523c4.85-4.849,12.699-4.849,17.549,0l41.124,41.1
		c1.649,1.649,3.646,1.885,4.688,1.885c1.972,0,3.845-0.781,5.271-2.208l152.33-152.305c2.827-2.84,2.977-7.305,0.322-9.958
		L353.398,176.992c-1.624-1.612-3.608-1.86-4.65-1.86c-1.997,0-3.882,0.781-5.32,2.22L191.159,329.644
		c-2.79,2.79-2.951,7.342-0.348,9.946l41.124,41.124c2.332,2.332,3.634,5.469,3.634,8.768s-1.302,6.449-3.634,8.768l-17.523,17.523
		c-4.191,4.192-10.752,4.849-15.688,1.525C164.397,394.257,116.451,394.579,81.417,417.212z"/>
	<path d="M156.794,530.886c-11.67,0-22.596-4.489-30.793-12.687c-17.103-17.114-16.842-45.217,0.558-62.666
		c4.837-4.849,12.675-4.849,17.536-0.013c4.849,4.85,4.849,12.688,0.013,17.549c-7.751,7.764-8.012,20.141-0.57,27.594
		c3.559,3.571,8.631,5.556,13.505,5.432c5.271-0.062,10.256-2.194,14.051-5.99c4.837-4.849,12.675-4.849,17.536-0.012
		c4.85,4.849,4.85,12.687,0.013,17.548c-8.396,8.408-19.521,13.121-31.289,13.258C157.166,530.886,156.981,530.886,156.794,530.886z
		"/>
	<path d="M443.906,257.243c-3.175,0-6.35-1.216-8.769-3.634c-4.849-4.849-4.849-12.687,0-17.536
		c7.751-7.751,7.999-20.128,0.533-27.581c-3.497-3.51-8.197-5.432-13.257-5.432c-0.074,0-0.161,0-0.248,0
		c-5.259,0.062-10.244,2.183-14.026,5.978c-4.85,4.862-12.699,4.849-17.549,0.013c-4.849-4.837-4.849-12.687-0.012-17.536
		c8.396-8.408,19.508-13.121,31.276-13.257c11.844,0.012,23.018,4.365,31.352,12.699c17.114,17.139,16.866,45.241-0.546,62.653
		C450.255,256.027,447.08,257.243,443.906,257.243z"/>
	<path d="M155.902,568.289c-21.505,0-41.596-8.259-56.663-23.327c-15.316-15.304-23.601-35.804-23.34-57.692
		c0.086-6.858,5.94-11.968,12.55-12.253c6.846,0.087,12.327,5.704,12.253,12.55c-0.186,15.168,5.519,29.318,16.072,39.872
		c10.555,10.541,25.064,15.985,39.835,16.06c7.007-0.074,12.463,5.407,12.55,12.253c0.075,6.846-5.407,12.464-12.253,12.551
		C156.572,568.289,156.237,568.289,155.902,568.289z"/>
	<path d="M154.872,605.681c-31.265,0-60.458-12.018-82.385-33.919c-22.298-22.286-34.365-52.1-33.993-83.972
		c0.087-6.809,5.618-12.253,12.402-12.253c0.05,0,0.099,0,0.148,0c6.846,0.087,12.327,5.705,12.253,12.551
		c-0.298,25.138,9.189,48.627,26.713,66.15c17.512,17.486,40.889,27.061,66.089,26.639c6.734,0.496,12.477,5.407,12.562,12.24
		c0.087,6.834-5.395,12.477-12.24,12.563C155.913,605.668,155.393,605.681,154.872,605.681z"/>
	<path d="M154.004,644.188c-41.422,0-80.103-15.911-109.122-44.932C15.428,569.79-0.521,530.365,0,488.225
		c0.087-6.797,5.618-12.241,12.401-12.241c0.05,0,0.1,0,0.148,0c6.846,0.075,12.34,5.692,12.253,12.551
		c-0.434,35.395,12.923,68.482,37.627,93.187c24.704,24.716,58.164,38.42,93.236,37.651c7.192-0.062,12.463,5.407,12.55,12.253
		s-5.407,12.463-12.253,12.55C155.306,644.188,154.661,644.188,154.004,644.188z"/>
</g>
</svg>
