<?xml version="1.0" encoding="utf-8"?>
<!-- Generator: Adobe Illustrator 16.0.0, SVG Export Plug-In . SVG Version: 6.00 Build 0)  -->
<!DOCTYPE svg PUBLIC "-//W3C//DTD SVG 1.1//EN" "http://www.w3.org/Graphics/SVG/1.1/DTD/svg11.dtd">
<svg version="1.1" id="Ebene_1" xmlns="http://www.w3.org/2000/svg" xmlns:xlink="http://www.w3.org/1999/xlink" x="0px" y="0px"
	 width="394px" height="431px" viewBox="100.14 131.445 394 431" enable-background="new 100.14 131.445 394 431"
	 xml:space="preserve">
<g>
	<path d="M184.376,135.21c-3.846,0-7.191,1.494-9.703,3.828c-51.7,43.099-70.601,98.84-70.601,146.427
		c0,47.753,18.906,103.329,70.601,146.433c2.512,2.333,5.852,3.827,9.703,3.827c7.863,0,14.055-6.321,14.055-13.978
		c0-4.327-1.846-8.155-5.024-10.815c-37.473-31.449-61.063-74.708-61.063-125.461c0-50.748,23.591-93.846,61.063-125.461
		c3.179-2.494,5.024-6.328,5.024-10.649C198.431,141.532,192.24,135.21,184.376,135.21L184.376,135.21z M410.904,135.21
		c-7.696,0-14.055,6.322-14.055,14.144c0,4.328,1.846,8.155,5.024,10.649c37.473,31.615,61.064,74.714,61.064,125.461
		c0,50.753-23.592,94.013-61.064,125.461c-3.179,2.661-5.024,6.495-5.024,10.816c0,7.656,6.358,13.978,14.055,13.978
		c3.846,0,7.191-1.494,9.87-3.827c51.7-43.099,70.434-98.674,70.434-146.433c0-47.587-18.733-103.329-70.434-146.427
		C418.095,136.705,414.755,135.21,410.904,135.21L410.904,135.21z M250.458,196.28c-2.846,0-5.524,0.994-7.53,2.161
		c-29.276,18.138-48.516,50.42-49.188,87.024c0.667,36.61,19.912,69.059,49.188,87.024c2.006,1.167,4.685,2.161,7.53,2.161
		c6.857,0,14.222-5.988,14.222-13.977c0-6.488-4.68-10.649-9.537-14.144c-19.739-13.644-32.454-35.443-32.96-61.07
		c0.506-25.46,13.221-47.42,32.96-61.064c4.852-3.494,9.537-7.655,9.537-13.977C264.68,202.436,257.322,196.28,250.458,196.28
		L250.458,196.28z M344.822,196.28c-6.857,0-14.055,6.155-14.055,14.144c0,6.322,4.519,10.483,9.37,13.977
		c19.912,13.644,32.455,35.604,33.121,61.064c-0.666,25.626-13.215,47.426-33.121,61.07c-4.852,3.494-9.37,7.655-9.37,14.144
		c0,7.989,7.197,13.978,14.055,13.978c2.846,0,5.686-0.994,7.53-2.161c29.276-17.972,48.516-50.414,49.188-87.024
		c-0.667-36.604-19.912-68.886-49.188-87.024C350.507,197.274,347.661,196.28,344.822,196.28L344.822,196.28z M297.64,267.827
		c-10.369,0-18.906,8.489-18.906,18.805c0,10.483,8.537,18.805,18.906,18.805c10.37,0,18.906-8.316,18.906-18.805
		C316.546,276.316,308.01,267.827,297.64,267.827L297.64,267.827z M297.64,369.995c-7.696,0-12.715,6.155-13.888,11.31
		l-32.955,159.577c-1.845,8.155,5.352,16.978,13.883,16.978h66.087c8.364,0,15.562-8.816,13.889-16.978l-33.122-159.577
		C310.183,374.989,304.831,369.995,297.64,369.995L297.64,369.995z M297.64,454.03l15.728,75.714h-31.282L297.64,454.03
		L297.64,454.03z"/>
</g>
</svg>
