<?xml version="1.0" encoding="utf-8"?>
<!-- Generator: Adobe Illustrator 16.0.0, SVG Export Plug-In . SVG Version: 6.00 Build 0)  -->
<!DOCTYPE svg PUBLIC "-//W3C//DTD SVG 1.1//EN" "http://www.w3.org/Graphics/SVG/1.1/DTD/svg11.dtd">
<svg version="1.1" id="Ebene_1" xmlns="http://www.w3.org/2000/svg" xmlns:xlink="http://www.w3.org/1999/xlink" x="0px" y="0px"
	 width="406px" height="581px" viewBox="63 41 406 581" enable-background="new 63 41 406 581" xml:space="preserve">
<g>
	
		<polyline fill="none" stroke="#000000" stroke-width="20" stroke-linecap="round" stroke-linejoin="round" stroke-miterlimit="10" points="
		409.181,593.506 265.057,277.136 120.934,593.506 	"/>
	<g>
		
			<polyline fill="none" stroke="#000000" stroke-width="20" stroke-linecap="round" stroke-linejoin="round" stroke-miterlimit="10" points="
			310.754,380.249 174.834,478.676 402.151,582.96 		"/>
		
			<polyline fill="none" stroke="#000000" stroke-width="20" stroke-linecap="round" stroke-linejoin="round" stroke-miterlimit="10" points="
			219.36,380.249 355.281,478.676 127.964,582.96 		"/>
	</g>
	
		<circle fill="none" stroke="#000000" stroke-width="20" stroke-linecap="round" stroke-miterlimit="10" cx="265.057" cy="241.984" r="31.637"/>
	<path fill="none" stroke="#000000" stroke-width="20" stroke-linecap="round" stroke-miterlimit="10" d="M205.299,302.914
		c-32.809-32.809-32.809-87.88,0-120.688c32.81-32.808,87.879-32.809,120.688,0c32.81,32.809,32.81,87.881,0,120.688"/>
	<path fill="none" stroke="#000000" stroke-width="20" stroke-linecap="round" stroke-miterlimit="10" d="M168.975,338.066
		c-52.729-52.728-52.729-139.437,0-192.164c52.729-52.729,139.436-52.729,192.165,0c52.729,52.728,52.729,139.436,0,192.164"/>
	<path fill="none" stroke="#000000" stroke-width="20" stroke-linecap="round" stroke-miterlimit="10" d="M132.651,375.563
		c-73.82-73.82-73.82-192.167,0-265.985c73.82-73.819,192.164-73.819,265.984,0c73.819,73.819,73.819,192.165,0,265.985"/>
</g>
</svg>
