<?xml version="1.0" encoding="utf-8"?>
<!-- Generator: Adobe Illustrator 12.0.0, SVG Export Plug-In  -->
<!DOCTYPE svg PUBLIC "-//W3C//DTD SVG 1.1//EN" "http://www.w3.org/Graphics/SVG/1.1/DTD/svg11.dtd" [
	<!ENTITY ns_flows "http://ns.adobe.com/Flows/1.0/">
	<!ENTITY ns_svg "http://www.w3.org/2000/svg">
	<!ENTITY ns_xlink "http://www.w3.org/1999/xlink">
]>
<svg  version="1.1" xmlns="&ns_svg;" xmlns:xlink="&ns_xlink;" xmlns:a="http://ns.adobe.com/AdobeSVGViewerExtensions/3.0/"
	 width="501" height="501" viewBox="-0.3779297 -0.3779297 501 501" enable-background="new -0.3779297 -0.3779297 501 501"
	 xml:space="preserve">
<defs>
</defs>
<polygon opacity="0" fill-rule="evenodd" clip-rule="evenodd" fill="#FFFFFF" points="0,0 500,0 500,500 0,500 0,0 "/>
<path fill-rule="evenodd" clip-rule="evenodd" fill="#0E1F7F" d="M106.1206055,208.2661133
	c0-62.0029297,34.1821289-122.4160156,102.5444336-122.4160156c69.15625,0,104.1318359,58.8237305,104.1318359,122.4160156
	c0,62.7973633-31.0009766,122.4174805-104.1318359,122.4174805
	C137.1225586,330.6835938,106.1206055,269.4726563,106.1206055,208.2661133L106.1206055,208.2661133z M42.527832,208.2661133
	c0,105.7241211,60.4135742,179.6518555,166.137207,179.6518555c106.5185547,0,167.7265625-73.9277344,167.7265625-179.6518555
	c0-102.543457-62.0039063-178.8549805-167.7265625-178.8549805C103.7368164,29.4111328,42.527832,105.7226563,42.527832,208.2661133
	L42.527832,208.2661133z"/>
<path fill-rule="evenodd" clip-rule="evenodd" fill="#0E1F7F" d="M361.2871094,470.5898438v-24.6425781
	c12.71875-11.9257813,62.0039063-53.2617188,62.0039063-79.4951172c0-13.5126953-11.9238281-19.8701172-23.0517578-19.8701172
	c-12.71875,0-24.6425781,5.5625-34.1826172,11.9257813l-2.3837891-24.6425781
	c13.5146484-6.3632813,28.6171875-10.3349609,43.7197266-10.3349609c27.0263672,0,44.515625,14.3066406,44.515625,42.921875
	c0,30.2099609-31.0009766,58.8242188-54.0556641,81.0859375h59.6210938v23.0517578H361.2871094L361.2871094,470.5898438z"/>
</svg>
