<?xml version="1.0" encoding="utf-8"?>
<!-- Generator: Adobe Illustrator 16.0.0, SVG Export Plug-In . SVG Version: 6.00 Build 0)  -->
<!DOCTYPE svg PUBLIC "-//W3C//DTD SVG 1.1//EN" "http://www.w3.org/Graphics/SVG/1.1/DTD/svg11.dtd">
<svg version="1.1" id="Ebene_1" xmlns="http://www.w3.org/2000/svg" xmlns:xlink="http://www.w3.org/1999/xlink" x="0px" y="0px"
	 width="595.279px" height="438px" viewBox="0 128.445 595.279 438" enable-background="new 0 128.445 595.279 438"
	 xml:space="preserve">
<path d="M586.762,388.324L460.021,370.9l-49.146-218.134l-0.071-0.357c-2.316-10.185-10.203-18.686-21.056-21.264
	c-15.191-3.601-30.431,5.792-34.032,20.984L286.02,445.923l-65.725-204.824l-0.089-0.286c-2.602-7.899-9.013-14.376-17.65-16.686
	c-13.608-3.643-27.597,4.441-31.234,18.049l-35.348,132.111L8.715,388.324c-3.769,0.417-6.882,3.393-7.316,7.316
	c-0.5,4.542,2.774,8.625,7.316,9.132l146.546,16.162c10.132,1.125,19.895-5.185,22.77-15.316l0.732-2.583l18.912-66.546
	l68.386,209.146c2.577,7.69,8.929,14.113,17.37,16.28c13.239,3.399,26.733-4.577,30.133-17.816l0.042-0.155l67.492-262.852
	l26.8,121.753l0.786,3.589c2.768,12.406,14.638,20.817,27.448,19.055l150.617-20.71c3.596-0.494,6.572-3.322,7.09-7.09
	C594.483,393.134,591.304,388.949,586.762,388.324z"/>
</svg>
